M48
METRIC,LZ
T01C.4064
T02C.8128
T03C.9906
T04C1.397
T05C1.4986
T06C1.8034
T07C1.1938
T08C2.9972
T09C3.5052
;LEADER: 12 
;HEADER: 
;CODE  : ASCII 
;FILE  : ECPELCS002-01-1-6.drl for  ... layers TOP and BOTTOM
;DESIGN: ECPELCS002-01.brd
;T01 Holesize 1. = 0.406400 Tolerance = +0.000000/-0.000000 PLATED MM Quantity = 2725
;T02 Holesize 2. = 0.812800 Tolerance = +0.000000/-0.000000 PLATED MM Quantity = 532
;T03 Holesize 3. = 0.990600 Tolerance = +0.000000/-0.000000 PLATED MM Quantity = 108
;T04 Holesize 4. = 1.397000 Tolerance = +0.000000/-0.000000 PLATED MM Quantity = 2
;T05 Holesize 5. = 1.498600 Tolerance = +0.000000/-0.000000 PLATED MM Quantity = 2
;T06 Holesize 6. = 1.803400 Tolerance = +0.000000/-0.000000 PLATED MM Quantity = 6
;T07 Holesize 7. = 1.193800 Tolerance = +0.000000/-0.000000 NON_PLATED MM Quantity = 6
;T08 Holesize 8. = 2.997200 Tolerance = +0.000000/-0.000000 NON_PLATED MM Quantity = 2
;T09 Holesize 9. = 3.505200 Tolerance = +0.000000/-0.000000 NON_PLATED MM Quantity = 32
%
G90
T01
X0565Y14175
X049375Y1455
X051125Y1455
X06225Y136
X0605Y134375
X048024Y140399
X1957096Y0180766
X186875Y018125
X19525Y20104
X21325Y019242
X303125Y04025
X30025Y0402502
X297Y042
X297Y044875
X2218308Y015742
X295Y044875
X295Y042
X2231654Y-0085846
X1844596Y0180766
X314986Y101611
X28882Y0402502
X291625Y04025
X2142904Y0180846
X271198Y217625
X271198Y221
X272698Y217625
X272698Y221
X1830404Y0180766
X239Y208
X2095Y1745
X14925Y1585
X204375Y018
X3375Y-0255
X20575Y19977
X27675Y217625
X27675Y221
X275262Y217625
X275262Y221
X1915Y231
X17425Y1585
X2292904Y0145846
X2523446Y217625
X252378Y221
X250878Y217625
X250878Y221
X19525Y182
X231Y18775
X2182431Y1787569
X15925Y1585
X2118308Y019242
X268625Y217625
X268625Y221
X267134Y217625
X267134Y221
X1635Y1675
X16175Y1585
X2131654Y-0085846
X223Y1675
X16675Y1585
X2181654Y-0085846
X0675Y19825
X0675Y19925
X07075Y194125
X061649Y190226
X060258Y187008
X088625Y18325
X301625Y193875
R02Y001125
X305875Y195
X305875Y193875
X305875Y196125
X324875Y195
X324875Y193875
X324875Y196125
X320625Y193875
R02Y001125
X330375Y219625
X334625Y219625
X330375Y217375
X330375Y2185
X334625Y2185
X334625Y217375
X296125Y219625
X291875Y219625
X296125Y2185
X296125Y217375
X291875Y217375
X291875Y2185
X278093Y193407
X013Y18325
X01675Y18325
X03925Y183375
X043Y183375
X027766Y189125
X03875Y193125
X0455Y193125
X04275Y19325
X04125Y19325
X067516Y15925
X067516Y16075
X067516Y16325
X067516Y16475
X001516Y189234
X011125Y20875
X002375Y20875
X0167527Y1932368
X01925Y193218
X0147688Y193218
X0125Y193593
X012Y20575
X00875Y-025875
X13835Y-0015
X16875Y-0015
X1663499Y-0015
X1639499Y-0015
X1599499Y-0015
X1583499Y-0015
X15515Y-0015
X1535501Y-0015
X15035Y-0015
X14875Y-0015
X1471501Y-0015
X14475Y-0015
X14075Y-0015
X1351501Y0075
X1375499Y0075
X1399499Y0075
R02X0028001
X14875Y0075
X15035Y0075
X1535501Y0075
X15515Y0075
X1583499Y0075
X1599499Y0075
X16315Y0075
X16475Y0075
X16715Y0075
X1703499Y0075
X1743499Y0075
X091625Y-025375
X100234Y-027234
X08475Y-026
X321Y0342046
X2270999Y-0015
X2247001Y-0015
X2206999Y-0015
X2190999Y-0015
X2095Y-0015
X2079001Y-0015
X2046999Y-0015
X2023001Y-0015
X1975Y-0015
X1935Y-0015
X1919001Y0075
X1942999Y0075
X1975Y0075
X2015Y0075
X2039001Y0075
X2079001Y0075
X2135Y0075
X2159Y007475
X2183001Y0075
X2270999Y0074749
X2295Y0075
X2295Y-001625
X1015Y-02875
X105375Y-021
X094805Y-016555
X094Y-013742
X101758Y-013742
X048805Y-016695
X057242Y-027375
X0255Y-025875
X13885Y152475
X13525Y1525
X132Y1525
X1316501Y1435251
X1340499Y1435499
X1364499Y1435501
X062367Y152758
X05675Y145375
X05675Y146125
X05775Y14575
X05875Y145375
X05875Y146125
X047976Y137351
X061885Y1564064
R02X-00127
X052595Y156375
R02X00127
X0535Y153625
R02X001
X049375Y142
R02X00175
X055375Y14075
X049984Y15925
X049984Y16075
X049984Y16325
X049984Y16475
X299829Y205125
X299872Y204082
X299853Y202957
X318851Y205043
X318894Y204
X318875Y202875
X328601Y228543
X328644Y2275
X328625Y226375
X290101Y228543
X290144Y2275
X290125Y226375
X311125Y219625
R02Y-001125
X315375Y217375
X315375Y219625
X315375Y2185
X300484Y184641
X319609Y184641
X329234Y208141
X310109Y208125
X2945Y20125
X294603Y195832
R02X001125
X293353Y195832
X3135Y20125
X315875Y19575
X312375Y19575
X313625Y19575
X31475Y19575
X323375Y21925
R02X001125
X32325Y22475
X302875Y21925
X304125Y21925
X30525Y21925
X306375Y21925
X309375Y226375
X309351Y228543
X309394Y2275
X304Y22475
X284875Y21925
R02X001125
X28475Y22475
X290859Y208125
X343Y003386
X343Y002068
X343Y000886
X343Y018636
X343Y017318
X343Y016136
X343Y037136
X343Y035818
X343Y034636
X343Y052386
X343Y051068
X343Y049886
X26825Y19125
X264927Y194677
X257464Y193411
X26275Y196258
X262742Y19875
R02Y0025
X259758Y19825
X259758Y1955
X281492Y19475
R02Y0025
X2815Y20225
X278Y204837
X25719Y199761
X257145Y204841
X257207Y202301
X2475Y19125
X2445Y194681
X2445Y197221
X244511Y199761
X244449Y202301
X244466Y204841
X278647Y211351
X276107Y211351
X270519Y211351
X267979Y211351
X262391Y211351
X254263Y211351
X251723Y211351
X246135Y211351
X243595Y211351
X259851Y211351
X27975Y228875
X27975Y23
X27975Y22775
X271625Y228875
X271625Y23
X271625Y22775
X2635Y228875
X2635Y23
X2635Y22775
X25525Y228875
X25525Y23
X25525Y22775
X247351Y22775
X247351Y23
X247351Y228875
X20494Y16931
X22725Y148
X2275Y1435
X2255999Y1435
X224Y1435
X2224Y1435
X2208001Y1435
X2191999Y1435
X2175999Y1435
X216Y1435
X2144Y1435
X2128001Y1435
X2111999Y1435
X2096Y1435
X2064001Y1435
X2031999Y1435
X2Y1435
X1968001Y1435
X1936Y1435
X1891Y1456
X233Y1555
X22925Y1555
X22675Y1555
X22175Y1555
X218Y1555
X228Y1525
X2191999Y1525
X2175999Y1525
X216Y1525
X2144Y1525
X2128001Y1525
X2111999Y1525
X2096Y1525
X2064001Y1525
X2031999Y1525
X2Y1525
X1968001Y1525
X1936Y1525
X1904001Y1525
X19225Y16175
X238Y20279
X234Y20275
R02X-004
X218Y20275
X222Y20275
X214Y20275
X238Y1825
X234Y1825
X226Y1825
X23Y1825
X222Y1825
X1665Y18254
X1585Y1825
X1625Y1825
X1545Y1825
X1665Y22025
R06X-004
X238Y16225
R04X-004
X1665Y16225
R04X-004
X238Y22025
X23Y22025
X234Y22025
R02X-008
X222Y22025
X214Y22025
X1465Y1825
X1505Y1825
X1425Y1825
X1665Y2
X1585Y2
X1625Y2
R02X-008
X1505Y2
X1445Y2025
X208742Y16175
X209117Y16375
X209117Y16675
X20469Y18531
X171625Y17925
X1795Y176
X171625Y18225
X171625Y18425
X188875Y181
X188875Y178
X188875Y183
X191875Y179
X191875Y182
X191875Y184
X19975Y17575
X209125Y17775
X209125Y18075
X209125Y18275
X18444Y18556
X20469Y20231
X1795Y193
X171625Y19925
X171625Y20125
X188875Y198
X188875Y195
X188875Y2
X191875Y196
X191875Y199
X191875Y201
X19975Y19275
X209125Y19475
X209125Y19775
X209125Y19975
X18444Y20256
X20469Y21931
X171625Y21325
X1795Y21
X171625Y21625
X171625Y21825
X188875Y215
X188875Y212
X188875Y217
X191875Y213
X191875Y216
X191875Y218
X19975Y20975
X209125Y21175
X209125Y21475
X209125Y21675
X18444Y21956
X191875Y23
X19975Y22675
X191875Y235
X191875Y233
X209125Y22875
X209125Y23175
X209125Y23375
X20469Y23631
X188875Y234
X188875Y232
X188875Y229
X18444Y23656
X171625Y23025
X171625Y23325
X171625Y23525
X1795Y227
X335236Y-023736
X3375Y-029
X331486Y-023736
X33375Y-029
X327736Y-023736
X33Y-029
X323986Y-023736
X32625Y-029
X320236Y-023736
X3225Y-029
X31875Y-029038
X316486Y-023774
X312736Y-023736
X315Y-029
X308986Y-023736
X31125Y-029
X305236Y-023736
X3075Y-029
X30375Y-029
X301486Y-023736
X337625Y01775
X337625Y01925
X337625Y01375
X337625Y01525
X338Y000375
X320625Y01775
X320625Y01925
X322875Y01775
X322875Y01925
X322875Y01525
X322875Y01375
X320625Y01375
X320625Y01525
X321Y000375
X322125Y-000875
X305875Y01775
X305875Y01925
X305875Y01525
X305875Y01375
X305125Y-000875
X303375Y01775
X303375Y01925
X303375Y01375
X303375Y01525
X30375Y000375
X286375Y01775
X286375Y01925
X288625Y01775
X288625Y01925
X288625Y01525
X288625Y01375
X286375Y01375
X286375Y01525
X28675Y000375
X287875Y-000875
X271625Y01775
X271625Y01925
X271625Y01525
X271625Y01375
X270875Y-000875
X33275Y0015
R02Y0025
X33025Y004
X33025Y0065
X33025Y0015
X32775Y004
X32775Y0065
X32775Y0015
X31575Y0015
X31325Y004
X31575Y0065
X31575Y004
X31325Y0065
X31325Y0015
X31075Y0065
R02Y-0025
X2985Y0015
R02Y0025
X296Y004
X2935Y004
X2935Y0065
X296Y0065
X2935Y0015
X296Y0015
X2815Y0015
X279Y004
X2815Y0065
X2765Y0065
X2815Y004
X2765Y004
X279Y0065
X2765Y0015
X279Y0015
X26275Y00925
R02Y-001182
X26275Y0245
R02Y-001182
X26275Y04325
R02Y-001182
X26275Y0585
R02Y-001182
X26275Y077
R02Y-001182
X26275Y09225
R02Y-001182
X26275Y11125
R02Y-001182
X26275Y1265
R02Y-001182
X26275Y14525
R02Y-001182
X26275Y1605
X252992Y0615
X252867Y0555
X252992Y0495
X252992Y0435
X252992Y0315
X252992Y0375
X253Y0255
R03Y-006
X241375Y0538001
R07Y-004
X241375Y0217999
X241375Y0177999
X23265Y0514
X232625Y053
X232625Y0434
X232625Y045
X232625Y0474
X232625Y049
X232625Y037
X232625Y0354
X232625Y0394
X232625Y041
X232625Y0274001
X232625Y029
X232625Y0314001
X232625Y033
X232625Y0194001
X232625Y021
X232625Y0234001
X232625Y025
X2346Y014125
X232625Y017
X33025Y03775
X31325Y03775
X296Y03775
X279Y03775
X337625Y053
X337625Y0515
X337625Y049
X337625Y0475
X338Y034125
X320625Y053
X320625Y0515
X322875Y053
X322875Y0515
X320625Y049
X320625Y0475
X322875Y0475
X322875Y049
X322125Y032875
X303375Y053
X303375Y0515
X305875Y053
X305875Y0515
X303375Y049
X303375Y0475
X305875Y0475
X305875Y049
X30375Y034125
X305125Y032875
X288625Y053
X288625Y0515
X288625Y0475
X288625Y049
X287875Y032875
X286375Y053
X286375Y0515
X286375Y049
X286375Y0475
X28675Y034125
X271625Y053
X271625Y0515
X271625Y0475
X271625Y049
X270875Y032875
X33275Y03525
X33275Y04025
X33275Y03775
X32775Y03525
X32775Y04025
X32775Y03775
X33025Y03525
X33025Y04025
X31325Y03525
X31075Y03525
X31325Y04025
X31075Y04025
X31075Y03775
X31575Y03525
X31575Y04025
X31575Y03775
X296Y03525
X296Y04025
X2985Y03525
X2985Y04025
X2985Y03775
X2935Y03525
X2935Y04025
X2935Y03775
X2815Y03525
X2815Y04025
X2815Y03775
X279Y03525
X2765Y03525
X279Y04025
X2765Y04025
X2765Y03775
X33025Y07175
X31325Y07175
X296Y07175
X279Y07175
X337625Y087
X337625Y0855
X337625Y083
X337625Y0815
X338Y068125
X320625Y087
X320625Y0855
X322875Y087
X322875Y0855
X320625Y083
X320625Y0815
X322875Y0815
X322875Y083
X321Y068125
X322125Y066875
X303375Y087
X303375Y0855
X305875Y087
X305875Y0855
X303375Y083
X303375Y0815
X305875Y0815
X305875Y083
X30375Y068125
X305125Y066875
X288625Y087
X288625Y0855
X288625Y0815
X288625Y083
X287875Y066875
X286375Y087
X286375Y0855
X286375Y083
X286375Y0815
X28675Y068125
X271625Y087
X271625Y0855
X271625Y0815
X271625Y083
X270875Y066875
X33275Y06925
X33275Y07425
X33275Y07175
X32775Y06925
X32775Y07425
X32775Y07175
X33025Y06925
X33025Y07425
X31325Y06925
X31075Y06925
X31325Y07425
X31075Y07425
X31075Y07175
X31575Y06925
X31575Y07425
X31575Y07175
X296Y06925
X296Y07425
X2985Y06925
X2985Y07425
X2985Y07175
X2935Y06925
X2935Y07425
X2935Y07175
X2815Y06925
X2815Y07425
X2815Y07175
X279Y06925
X2765Y06925
X279Y07425
X2765Y07425
X2765Y07175
X33025Y10575
X31325Y10575
X296Y10575
X279Y10575
X337625Y121
X337625Y1195
X337625Y117
X337625Y1155
X338Y102125
X320625Y121
X320625Y1195
X322875Y121
X322875Y1195
X320625Y117
X320625Y1155
X322875Y1155
X322875Y117
X321Y102125
X322125Y100875
X303375Y121
X303375Y1195
X305875Y121
X305875Y1195
X303375Y117
X303375Y1155
X305875Y1155
X305875Y117
X30375Y102125
X305125Y100875
X288625Y121
X288625Y1195
X288625Y1155
X288625Y117
X287875Y100875
X286375Y121
X286375Y1195
X286375Y117
X286375Y1155
X28675Y102125
X271625Y121
X271625Y1195
X271625Y1155
X271625Y117
X270875Y100875
X33275Y10325
X33275Y10825
X33275Y10575
X32775Y10325
X32775Y10825
X32775Y10575
X33025Y10325
X33025Y10825
X31325Y10325
X31075Y10325
X31325Y10825
X31075Y10825
X31075Y10575
X31575Y10325
X31575Y10825
X31575Y10575
X296Y10325
X296Y10825
X2985Y10325
X2985Y10825
X2985Y10575
X2935Y10325
X2935Y10825
X2935Y10575
X2815Y10325
X2815Y10825
X2815Y10575
X279Y10325
X2765Y10325
X279Y10825
X2765Y10825
X2765Y10575
X279Y13975
X33025Y13975
X31325Y13975
X338Y136125
X322125Y134875
X321Y136125
X305125Y134875
X337625Y1535
X337625Y155
X337625Y1495
X337625Y151
X322875Y1535
X322875Y155
X320625Y1535
X320625Y155
X322875Y151
X322875Y1495
X320625Y1495
X320625Y151
X305875Y1535
X305875Y155
X305875Y151
X305875Y1495
X33275Y13975
X33275Y14225
X33275Y13725
X32775Y13975
X32775Y14225
X33025Y14225
X32775Y13725
X33025Y13725
X31575Y13975
X31075Y13975
X31075Y14225
X31575Y14225
X31325Y14225
X31075Y13725
R02X0025
X287875Y134875
X252992Y141875
R04Y-006
X252992Y1115
X253Y1055
R03Y-006
X241375Y1338001
R07Y-004
X241375Y1017999
X241375Y0977999
X232625Y0954001
X232625Y097
X232625Y0994001
X232625Y101
X232625Y1034001
X232625Y105
X232625Y1074001
X232625Y109
X232625Y1114001
X232625Y113
X232625Y1154
X232625Y117
X232625Y1194
X232625Y121
X232625Y1234
X232625Y125
X232625Y1274
X232625Y129
X23265Y1314
X232625Y133
X296Y13975
X30375Y136125
X303375Y1535
X303375Y155
X303375Y1495
X303375Y151
X288625Y1535
X288625Y155
X288625Y151
X288625Y1495
X2985Y13975
X2935Y13975
X2935Y14225
X2985Y14225
X296Y14225
X2935Y13725
R02X0025
X2815Y13975
X2765Y13725
R02Y0025
X2815Y14225
X279Y14225
X279Y13725
X2815Y13725
X270875Y134875
X28675Y136125
X286375Y1495
X286375Y151
X286375Y1535
X286375Y155
X271625Y151
X271625Y1495
X271625Y1535
X271625Y155
X022125Y2345
X022125Y233
X014976Y235351
X01375Y23375
X012Y23275
X01375Y230625
X00475Y233125
X00825Y233625
X-001266Y23
X01925Y22225
X0098501Y222
X0125Y222625
X0098501Y223
X0167527Y2222688
X0147688Y22225
X0036499Y223
X0036499Y222
X0074124Y2224575
X0060876Y2224575
X0074124Y224
X0060876Y224
X0074124Y2255425
X0060876Y2255425
X001734Y225016
X-0020406Y2246656
X135095Y219405
X13775Y215625
X123742Y216875
X123742Y215625
X121095Y219405
X10975Y216875
X109742Y215625
X107095Y219405
X095742Y215625
X093095Y219405
X095742Y216875
X081742Y216875
X081742Y215625
X079095Y219405
X067875Y216875
X067875Y215625
X02775Y220386
X02775Y219068
X02775Y217886
X01525Y220318
X01525Y217818
X01525Y219
X001516Y216109
X-0005Y21975
X-001774Y2175
X123875Y213125
R04X-014
X0345Y206625
X031Y206125
X00475Y206125
X00825Y206625
X137625Y202625
X123625Y202625
X124742Y203
X109625Y202625
X110742Y203
X095625Y202625
X096742Y203008
X082742Y203
X081625Y202625
X0660462Y20475
X0675Y203875
X065125Y2012962
X048375Y2055
X048375Y204
X04Y20475
X041226Y206351
X039512Y20225
X03825Y20575
X0336624Y1985425
X0323376Y1985425
X024984Y203
X022125Y2055
X022125Y204
X013262Y20225
X01375Y20475
X014976Y206351
X0074124Y1985425
X0060876Y1985425
X-001266Y203
X066125Y19825
X0695Y194125
X054875Y194
X0532814Y197125
X052Y191125
X0505Y191125
X04225Y190798
X04375Y190798
X0361001Y195
X0361001Y196
X0385Y190798
X04Y190798
X0336624Y1954575
X0323376Y1954575
X0336624Y197
X0323376Y197
X0298999Y195
X0242094Y1976656
X0298999Y196
X027984Y198016
X0175Y190798
X016Y190798
X01375Y190798
X01225Y190798
X0098501Y195
X0098501Y196
X0036499Y196
X0036499Y195
X0074124Y1954575
X0060876Y1954575
X0074124Y197
X0060876Y197
X001734Y198016
X-0020406Y1976656
X069125Y18875
X0604838Y1906088
X052125Y189
X02575Y19275
X024476Y1905
X-001774Y1905
X-0005Y19275
X088136Y17725
X086818Y17725
X085636Y17725
X0325Y17725
X031182Y17725
X03Y17725
X088136Y1645
X086818Y1645
X085636Y1645
X0325Y1645
X031182Y1645
X03Y1645
X343Y160136
X343Y158818
X343Y157636
X26275Y159318
X26275Y158136
X1700501Y1525
X16365Y1525
X1668499Y1525
X1540501Y1525
X1588499Y1525
X14925Y1525
X1444499Y1525
X343Y144886
X343Y143568
X343Y142386
X1700501Y1435
X16365Y1435
X1668499Y1435
X1540501Y1435
X1588499Y1435
X14925Y1435
X13925Y1435
X1444499Y1435
X343Y126136
X343Y124818
X343Y123636
X343Y110568
X343Y108068
X343Y10925
X343Y092386
X343Y091068
X343Y089886
X343Y077136
X343Y075818
X343Y074636
X28325Y0402502
X286125Y04025
X137625Y207625
X13125Y201625
X1355Y159125
X1981654Y-01025
X248314Y221
X248314Y217625
X246814Y217625
X246814Y221
X28Y044875
X28Y042
X095625Y207625
X08925Y201625
X13175Y136875
X220625Y018125
X254942Y217625
X254942Y221
X256442Y217625
X256442Y221
X278Y044875
X278Y042
X03725Y19725
X036125Y19725
X029875Y19725
X02875Y1935
X02875Y192
X239Y18775
X21725Y1799686
X158Y1595
X2306654Y-01025
X26307Y217625
X26307Y221
X26457Y217625
X26457Y221
X332041Y101584
X274625Y04025
X27182Y0402502
X03425Y20125
X0284826Y2003576
X223Y208
X2118115Y1744469
X15175Y1585
X2331654Y-0085846
X18925Y233
X16825Y1595
X25Y0405
X3125Y033625
X2068308Y019242
X20575Y19775
X2605Y217625
X2605Y221
X259006Y217625
X259006Y221
X17175Y238
X16925Y1585
X33325Y-018125
X250625Y042
X279326Y217625
X279326Y221
X280826Y217625
X280826Y221
X231Y208
X21075Y1745
X1505Y1595
X25Y0195
X2982499Y-003375
X1967904Y0180766
X24275Y221
X24425Y221
X24275Y217625
X24425Y217625
X20575Y17769
X231Y22825
X1975Y1723128
X14175Y1585
X2106654Y-01025
X087625Y218125
X092375Y21025
X20575Y18075
X16425Y1585
X21825Y171
X224125Y172125
X239Y1675
X25075Y021
X2902636Y-00125
X2081654Y-0085846
X1555Y18775
X1555Y1595
X25Y0315
X332125Y030375
X056425Y-01655
X337375Y07425
X3345Y0742502
X239Y22825
X1965Y1732814
X1405Y1585
X25Y0525
X278125Y033625
X0849058Y-0249486
X33125Y078875
X33125Y076
X1635Y22825
X13675Y1585
X25Y0345
X3295Y033625
X1992904Y0180766
X055155Y-02497
X32925Y076
X32925Y078875
X13425Y136875
X07525Y201625
X081625Y207625
X250625Y0465
X29525Y033625
X1869154Y-01025
X085Y-0225
X280736Y-000139
X32307Y0742502
X325875Y07425
X2095Y23275
X17175Y1585
X25Y0435
X2982499Y030625
X1892904Y0180766
X056425Y-024925
X223Y18775
X21925Y1799686
X1605Y1595
X332125Y064375
X25Y0555
X1917904Y0180766
X0835Y-019
X1475Y22825
X13925Y1585
X25Y0135
X30625Y-003875
X1894154Y-0085766
X08475Y-01975
X1635Y208
X149Y18375
X14025Y18375
X1455Y1595
X2268308Y01575
X0829064Y-017994
X223Y22825
X1965Y1715314
X143Y1585
X250625Y015
X3075136Y-0020314
X2092904Y0180846
X0829064Y-023125
X145Y173
X1475Y18775
X1485Y173
X15675Y1585
X25Y0495
X27Y02925
X2031654Y-01025
X0850979Y-0208436
X25Y0375
X30625Y0295
X1942904Y0180766
X086Y-023875
X175Y21321
X3175Y0742502
X320375Y07425
X12925Y136875
X109625Y207625
X10325Y201625
X25Y0285
X278125Y-000125
X057695Y-01657
X31425Y078875
X31425Y076
X14625Y18475
X1555Y208
X1415Y18475
X14675Y1585
X25Y045
X2902636Y0325
X2242904Y0145846
X31225Y076
X31225Y078875
X173Y1595
X18875Y238
X30607Y0742502
X308875Y07425
X19525Y17896
X25Y0075
X332125Y-003375
X2156654Y-01025
X215Y22825
X1995Y173
X14425Y1585
X250625Y057
X3245136Y0657186
X2281654Y-0085846
X123625Y207625
X11725Y201625
X133Y159125
X250625Y039
X3075136Y0317186
X2006654Y-0085846
X175Y21625
X1555Y1675
X163Y1595
X3075136Y0657186
X25075Y063
X231Y1675
X1655Y1595
X3099178Y0638322
X25Y0615
X1956654Y-0085766
X1555Y22825
X138Y1595
X25Y0585
X3295Y067625
X2256654Y-01025
X215Y208
X2140526Y1791974
X153Y1595
X303125Y07425
X30025Y0742502
X17125Y23125
X1705Y1595
X25Y0105
X3295Y-000125
X297Y076
X297Y078875
X1635Y18775
X15425Y1585
X322Y-018125
X25075Y06
X297791Y-000166
X295Y078875
X295Y076
X25075Y027
X2732636Y-0020314
X175Y21829
X332041Y135584
X28882Y0742502
X291625Y07425
X337Y-018125
X250875Y0358282
X250625Y051
X2732636Y0317186
X314986Y135611
X25075Y009
X3245136Y-0020314
X3295Y-018125
X254875Y049
X250875Y0329886
X3245136Y0317186
X252625Y0644686
X3125Y067625
X078375Y-028625
X08Y-028625
X07675Y-028625
X08Y-026625
R03X-001625
X075125Y-028625
X081625Y-026625
X081625Y-028625
X28325Y0742502
X286125Y07425
X25Y0165
X3125Y-000125
X1855Y21702
X28Y078875
X28Y076
X268375Y-003375
X25Y0255
X343Y-00525
X343Y-006568
X343Y-00775
X343Y01
X343Y008682
X343Y0075
X343Y0285
X343Y027182
X343Y026
X343Y04375
X343Y042432
X343Y04125
X334625Y0035
X33743Y0034998
X323125Y0035
X326Y0034998
X32043Y0034998
X317625Y0035
X306125Y0035
X309Y0034998
X300375Y0035
X30318Y0034998
X29175Y0034998
X288875Y0035
X283375Y0035
X28618Y0034998
X271875Y0035
X27475Y0034998
X26275Y000614
R02Y-001182
X26275Y015864
R02Y-001182
X26275Y034614
R02Y-001182
X26275Y049864
R02Y-001182
X26275Y068364
R02Y-001182
X26275Y083614
R02Y-001182
X26275Y102614
R02Y-001182
X26275Y117864
R02Y-001182
X26275Y136614
R02Y-001182
X26275Y151864
R02Y-001182
X33743Y0372498
X334625Y03725
X326Y0372498
X32043Y0372498
X317625Y03725
X323125Y03725
X30318Y0372498
X309Y0372498
X306125Y03725
X300375Y03725
X29175Y0372498
X288875Y03725
X28618Y0372498
X283375Y03725
X27475Y0372498
X271875Y03725
X33743Y0712498
X334625Y07125
X326Y0712498
X32043Y0712498
X317625Y07125
X323125Y07125
X30318Y0712498
X309Y0712498
X306125Y07125
X300375Y07125
X29175Y0712498
X288875Y07125
X28618Y0712498
X283375Y07125
X27475Y0712498
X271875Y07125
X33743Y1052498
X334625Y10525
X326Y1052498
X32043Y1052498
X317625Y10525
X323125Y10525
X30318Y1052498
X309Y1052498
X306125Y10525
X300375Y10525
X29175Y1052498
X288875Y10525
X28618Y1052498
X283375Y10525
X27475Y1052498
X271875Y10525
X334625Y13925
X33743Y1392498
X323125Y13925
X326Y1392498
X317625Y13925
X32043Y1392498
X306125Y13925
X309Y1392498
X300375Y13925
X30318Y1392498
X288875Y13925
X29175Y1392498
X283375Y13925
X271875Y13925
X27475Y1392498
X28618Y1392498
X2215Y0965
R02Y-00175
X2215Y08425
X2215Y09125
X2215Y0895
R02Y-00175
X2215Y08075
X2215Y0825
X2235Y08075
R09Y00175
X343Y1515
X343Y150182
X343Y149
X343Y13625
X343Y134932
X343Y13375
X343Y1175
X343Y116182
X343Y115
X343Y10225
X343Y100932
X343Y09975
X343Y08375
X343Y082432
X343Y08125
X343Y0685
X343Y067182
X343Y066
X278Y078875
X278Y076
X32575Y-018125
X250625Y054
X274625Y07425
X27182Y0742502
X20575Y16375
X25Y0225
X29525Y-000125
X1855Y17794
X3338751Y2230001
X335Y2230001
X008Y22825
X0022326Y2273576
X115625Y218125
X120375Y21025
X3241251Y1995001
X32525Y1995001
X176Y18429
X3145Y2230001
X31575Y2230001
X1855Y19494
X2953751Y2230001
X2965Y2230001
X1855Y215
X337375Y10825
X3345Y1082502
X3213749Y1995001
X32025Y1995001
X33125Y112875
X33125Y11
X32925Y11
X32925Y112875
X32307Y1082502
X325875Y10825
X18925Y196
X2025Y136497
X3051251Y1995001
X30625Y1995001
X280736Y033611
X3265Y135625
X225375Y12225
X297791Y033584
X3095Y101625
X2265Y111
X3175Y1082502
X320375Y10825
X29375Y135625
X2265Y1285
X3311249Y2230001
X33Y2230001
X31425Y112875
X31425Y11
X29225Y067625
X2255Y09975
X2926249Y2230001
X2915Y2230001
X31225Y11
X31225Y112875
X27525Y067625
X2265Y1035
X3023749Y1995001
X30125Y1995001
X30607Y1082502
X308875Y10825
X2834204Y101625
X2265Y116
X312Y2230001
X31075Y2230001
X19525Y22996
X3176704Y101625
X2265Y1085
X29225Y101625
X225375Y11475
X3176704Y135625
X2265Y1235
X311Y101625
X225375Y10975
X311Y135625
X225375Y12475
X27675Y101625
X225375Y11725
X303125Y10825
X30025Y1082502
X33475Y1015401
X2255Y10475
X297Y11
X297Y112875
X207625Y17575
X21Y136497
X328Y101625
X2265Y106
X295Y112875
X295Y11
X22625Y137489
X290375Y167125
X3004754Y10154
X225375Y11225
X28882Y1082502
X291625Y10825
X1865Y1925
X1975Y136497
X2834204Y135625
X2265Y131
X272375Y1725
X21625Y137497
X27675Y135625
X225375Y13225
X19525Y23504
X010625Y224125
X010625Y225375
X0025Y2205
X0025Y219
X19625Y137497
X2095Y20175
X2835625Y0674436
X2265Y101
X20575Y21169
X21875Y137497
X2625Y17075
X29375Y101625
X2265Y1135
X126635Y203865
X131875Y205125
X120875Y205135
X112635Y203865
X106875Y205135
X098635Y203865
X092875Y205135
X084635Y203865
X078875Y205135
X0675Y201125
X0675Y202234
X2995Y16625
X225Y136489
X33475Y1355401
X225375Y11975
X27675Y067625
X2255Y10225
X179Y13725
X17125Y18625
X328Y135625
X2265Y121
X130125Y214625
X28325Y1082502
X286125Y10825
X25275Y165
X22Y136489
X3004308Y0676416
X2265Y09725
X07073Y191605
X07073Y19048
X132Y19975
X121742Y199758
R03X-014
X28Y112875
X28Y11
X2175Y136497
X26075Y171625
X3004754Y13554
X225375Y12725
X278Y112875
X278Y11
X19375Y1375
X17125Y21725
X3265Y101625
X225375Y10725
X117375Y214625
X274625Y10825
X27182Y1082502
X274125Y173375
X215Y136497
X27525Y101625
X2265Y1185
X20575Y23377
X1795Y13825
X17125Y20025
X3095Y135625
X2265Y126
X225375Y12975
X29225Y135625
X089375Y214625
X1785Y1885
X195Y136497
X2265Y0985
X29375Y067625
X074125Y214625
X1925Y136497
X1766718Y2044218
X088125Y214625
X20625Y133
X21425Y1825
X102125Y214625
X1765Y1365
X17125Y18025
X337375Y14225
X3345Y1422502
X1855Y232
X1905314Y217
X20125Y137497
X33125Y146875
X33125Y144
X1757814Y2064064
X19125Y137497
X20575Y23175
X32925Y144
X32925Y146875
X2Y136497
X2095Y21875
X116125Y214625
X325875Y14225
X32307Y1422502
X175Y23021
X20875Y137497
X19975Y17775
X21375Y137497
X2123115Y1635998
X06825Y194125
X0505Y19775
X0505Y19875
X18925Y202
X20375Y137497
X19875Y137497
X2095Y21275
X3095Y067625
X2265Y0535
X052875Y1455
X045726Y1442313
X08975Y-00725
X088125Y-00725
X093875Y10225
R04X-001625
X093875Y100125
R04X-001625
X296875Y198875
X296875Y2
X29575Y2
X29575Y198875
X044516Y16075
X044516Y15925
X044516Y16475
X044516Y16325
X0435Y17425
X0435Y17275
X0435Y17675
X0435Y17825
X315875Y2
X315875Y198875
X31475Y198875
X31475Y2
X325625Y2235
X325625Y222375
X3245Y222375
X3245Y2235
X306375Y2235
X306375Y222375
X30525Y222375
X30525Y2235
X286Y2235
X287125Y2235
X286Y222375
X287125Y222375
X280826Y226375
X279326Y226375
X279326Y225125
X280826Y225125
X276762Y226375
X275262Y226375
X275262Y225125
X276762Y225125
X272698Y226375
X271198Y226375
X271198Y225125
X272698Y225125
X268634Y226375
X267134Y226375
X267134Y225125
X268634Y225125
X26457Y226375
X26307Y226375
X26307Y225125
X26457Y225125
X260506Y226375
X259006Y226375
X259006Y225125
X260506Y225125
X256442Y226375
X254942Y226375
X254942Y225125
X256442Y225125
X252378Y226375
X250878Y226375
X250878Y225125
X252378Y225125
X248314Y226375
X246814Y226375
X246814Y225125
X248314Y225125
X24425Y226375
X24275Y226375
X24425Y225125
X24275Y225125
X24575Y1785
X24775Y1785
X24775Y162
X24575Y162
X14275Y162
X14075Y162
X02175Y23075
X02175Y229375
X048Y20175
X048Y200375
X02175Y200375
X02175Y20175
X038636Y17725
X039818Y17725
X041136Y17725
X038636Y1645
X039818Y1645
X041136Y1645
X061238Y154512
X131375Y214625
X3095Y-000125
X2265Y0235
X175Y23529
X22375Y137489
X315375Y168
X315375Y213125
X311Y067625
X2255Y05225
X103375Y214625
X324875Y168875
X2225Y136489
X2834204Y033625
X2265Y0435
X075375Y214625
X280736Y067611
X320375Y14225
X3175Y1422502
X1855Y23402
X057Y1666564
X059758Y150375
X2075Y1325
X21425Y187
X29375Y033625
X2265Y041
X31425Y146875
X31425Y144
X0585Y1666564
X058742Y150742
X3347254Y-0001581
X22475Y018125
X31225Y146875
X31225Y144
X0645Y172875
X060875Y1421461
X3265Y033625
X2255Y03475
X20575Y19469
X308875Y14225
X30607Y1422502
X2265Y051
X3176704Y067625
X27525Y-000125
X2265Y031
X295Y146875
X295Y144
X328Y033625
X2265Y0335
X280736Y135611
X3176704Y-000125
X2265Y021
X20525Y1665
X27675Y-000125
X2255Y02975
X297791Y067584
X3265Y-000125
X2255Y01975
X2265Y0485
X328Y067625
X062387Y142113
X065905Y167595
X0659064Y174375
X311Y033625
X2255Y03725
X314986Y-000139
X2255Y04475
X27675Y033625
X311Y-000125
X2255Y02225
X0517814Y1679686
X0517814Y1555936
X3095Y033625
X2265Y0385
X328Y-000125
X2265Y0185
X29225Y-000125
X2255Y02725
X29375Y-000125
X2265Y026
X286125Y14225
X28325Y1422502
X056375Y15675
X054125Y144375
X3004754Y03354
X2255Y03975
X0735Y205135
X081625Y203875
X332041Y-000166
X3176704Y033625
X2265Y036
X29225Y033625
X2255Y04225
X095625Y203875
X0875Y205135
X2255Y04975
X3265Y067625
X33475Y0335
X2255Y03225
X109625Y203875
X1015Y205135
X2265Y046
X27525Y033625
X2835Y-0002099
X2265Y0285
X123625Y203875
X1155Y205135
X2255Y04725
X33475Y0675401
X137625Y203875
X1295Y205135
X3004754Y-00021
X2255Y02475
X02525Y073375
R02X001625
X0285Y075375
R02X-001625
X02525Y069375
R02X001625
X0285Y071375
R02X-001625
X02525Y065375
R02X001625
X0285Y067375
R02X-001625
X02525Y061375
R02X001625
X0285Y063375
R02X-001625
X0494621Y1869666
X0482879Y1869666
X19625Y17769
X176Y176
X19625Y17575
X176Y17794
X176Y19494
X19625Y19469
X176Y193
X19625Y19275
X19625Y21169
X176Y21
X19625Y20975
X176Y21194
X176Y22894
X19625Y22675
X19625Y22869
X176Y227
X0482879Y1840871
X0494621Y1840871
X0495Y1855
X04825Y1855
X19625Y16169
X073625Y218125
X078375Y21025
X156125Y-01625
X10275Y-016
X153Y02575
X21925Y159492
X332125Y180375
X1354558Y0165
X2314066Y1585
X298375Y17425
X3002499Y2210001
X15925Y026625
X253Y205625
X274553Y195947
X16675Y014375
X257125Y207
X274513Y198487
X1555Y030875
X262125Y207125
X2745314Y201027
X1755846Y0145846
X264875Y207125
X274567Y203567
X291625Y14225
X28882Y1422502
X297791Y101584
X16175Y018875
X28Y146875
X28Y144
X280736Y101611
X20525Y18825
X20425Y159492
X1505Y-021
X233Y158492
X28775Y175125
X163Y018
X1915Y214
X1955Y158492
X156625Y-013375
X17225Y19025
X175Y19925
X24275Y19925
X18125Y19075
X1443346Y-0085846
X3194999Y2210001
X223Y158492
X31775Y178625
X1467942Y-009742
X1855Y21194
X209125Y16875
X208Y158492
X168Y-01175
X15825Y-02275
X1045Y-026742
X1915Y22
X19425Y159492
X1404558Y0165
X333875Y18125
X218Y158492
X153Y-025625
X07525Y-0395
X22675Y159492
X307625Y176
X306125Y213
X1393346Y-0085846
X101625Y218125
X106375Y21025
X20275Y1739079
X203Y158492
X1429154Y0145846
X20575Y16169
X175Y20129
X17225Y19175
X1865Y209
X1855Y158492
X135375Y-009742
X2055Y158492
X17875Y1565
X17125Y18325
X15175Y-020125
X008Y20125
X0022326Y2003576
X17125Y20325
X1774083Y16775
X1595Y-016125
X2005Y158492
X19975Y18575
X1705846Y0145846
X1825Y18825
X18375Y164
X14925Y021
X263758Y183008
X213Y158492
X140375Y-009742
X0025Y1935
X0025Y192
X009875Y19725
X011Y19725
X261625Y183875
X21175Y159492
X1766654Y-0085846
X332041Y033584
X282375Y18475
X2105Y158492
X14675Y028375
X1855Y20002
X18525Y20425
X185Y164
X1379154Y0145846
X3165Y1795
X2205Y158492
X1741654Y-01
X22925Y159492
X297375Y176875
X168Y-007625
X176Y16775
X17125Y21425
X15175Y023
X297Y146875
X297Y144
X1865Y2065
X189Y165
X1329154Y-0085846
X314986Y033611
X2255Y158492
X30875Y17775
X3097499Y1975001
X1730846Y016
X18925Y199
X192Y19225
X19675Y159492
X1730846Y-0085846
X20575Y22869
X1855Y198
X155625Y-02375
X3384686Y182125
X2155Y158492
X219Y208
X1825Y1320628
X136875Y0165
X1845Y1914532
X18625Y164
X1405Y136625
X1435Y22825
X093633Y-023875
X09475Y-026625
X154125Y-019
X1995Y1882186
X20175Y159492
X163Y136625
X1595Y1675
X168Y-01025
X13675Y1375
X1675Y22825
X1555Y-012375
X19925Y159492
X2Y17075
X19175Y227
X17425Y1375
X168Y014875
X27325Y185625
X20925Y1585
X15675Y1375
X1545Y1845
X1515Y18775
X1716654Y-0085846
X251875Y1775
X21425Y159492
X17175Y137625
X19075Y2244686
X1605Y022
X172Y16475
X17125Y22025
X15425Y1375
X1675Y18775
X27525Y135625
X2265Y1335
X1443346Y0145846
X297791Y135584
X227Y22825
X1767186Y1285
X148Y024875
X0255Y-030625
X278Y144
X278Y146875
X18975Y2235
X173Y1365
X15425Y-02275
X09875Y-030875
X19525Y233
X14925Y1375
X1435Y208
X158Y-0115
X08475Y-03075
X337375Y0065
X3345Y0065002
X227Y1675
X22725Y1355314
X0095Y-0315
X15425Y032875
X33125Y011125
X33125Y00825
X227Y208
X18375Y1312814
X1780846Y-0085846
X32925Y00825
X32925Y011125
X16125Y13625
X1515Y1675
X15675Y031875
X19525Y21296
X19525Y206
X325875Y0065
X32307Y0065002
X227Y18775
X18725Y1337814
X1655Y013375
X303125Y14225
X30025Y1422502
X1705Y136625
X17125Y23425
X1505Y024
X129625Y218125
X134375Y21025
X095875Y206375
X102242Y202625
X1305Y136875
X16425Y02
X14675Y1375
X1595Y208
X251Y1432854
X2732636Y1337186
X1716654Y016
X123875Y206375
X130242Y202625
X13425Y159125
X1393346Y0145846
X13925Y1375
X1515Y22825
X25Y125125
X3245136Y1337186
X155125Y-018
X106125Y-016625
X1015Y-0215
X175Y23325
X19525Y216
X19375Y205
X1355Y136875
X067875Y206375
X074242Y202625
X25Y0875
X2982499Y064625
X1367942Y-009742
X274625Y14225
X27182Y1422502
X320375Y0065
X3175Y0065002
X235Y22825
X1775Y12725
X25Y1385
X29525Y135625
X1691654Y0145846
X31425Y011125
X31425Y00825
X219Y22825
X1755Y1295
X25Y1025
X3295Y101625
X145375Y-009742
X31225Y00825
X31225Y011125
X1515Y173
X158Y136625
X1425Y172
X1435Y18775
X2715Y1312814
X25Y1415
X1455Y029875
X332041Y067584
X148Y136625
X1515Y208
X250625Y1191718
X2732636Y0997186
X1755846Y-01
X308875Y0065
X30607Y0065002
X109875Y206375
X116242Y202625
X13175Y159125
X25Y1145
X29525Y101625
X1343346Y-0085846
X1855Y22894
X235Y1675
X2305Y1355
X25Y0905
X29525Y067625
X1741654Y0145846
X19525Y21804
X18925Y23
X168Y136625
X278125Y135625
X25Y1445
X141875Y0165
X16175Y1375
X16725Y1675
X307Y-018125
X250625Y104
X1379154Y-0085846
X0685998Y2195
X0825998Y2195
X1245998Y2195
X0965998Y2195
X1105998Y2195
X271875Y0687498
X284625Y066625
X271875Y1027498
X284625Y100625
X271875Y1367498
X284625Y134625
X288875Y0687498
X2720526Y0348026
X271875Y0009998
X33984Y134035
R02Y-034
X34Y032
X3399084Y-001715
X288875Y0009998
X306125Y0009998
X329758Y187008
X32975Y188125
X330883Y187008
X325891Y187875
X306766Y187875
X1035Y-027758
X091625Y-026625
X058258Y-02525
X04575Y-02325
X04575Y-0245
X002875Y-010375
X002875Y-012375
X0045Y-012375
X0045Y-010375
X-002Y-012375
X-002Y-010375
X-000375Y-010375
X00125Y-010375
X-000375Y-012375
X00125Y-012375
X009375Y-010375
X009375Y-012375
X006125Y-012375
X006125Y-010375
X00775Y-010375
X00775Y-012375
X105375Y-024
X103695Y-024945
X098615Y-02499
X099885Y-01651
X096Y-01275
X10375Y-01275
X053885Y-016625
X052615Y-024875
X0587305Y-0234805
X0232166Y1824084
X022125Y1824084
X073875Y19775
X073875Y199
X075Y19775
X075Y199
X066075Y2035962
X064175Y203625
X0627388Y2007388
X06275Y20275
X0604638Y1929112
X0592138Y1929112
X0232166Y1840334
X022125Y1840334
X0232166Y1857166
X022125Y1857166
X335516Y208141
X316391Y208141
X330883Y188125
X311883Y188133
X321378Y211625
X302128Y211625
X297125Y208125
X264907Y193407
X26525Y19125
X2445Y193411
X2445Y19125
X172Y17825
X172Y18125
X172Y18525
X1885Y177
X1885Y18
X1885Y184
X19225Y178
X19225Y181
X19225Y185
X20875Y17975
X20875Y17675
X20875Y18375
X172Y19625
X172Y19825
X172Y20225
X1885Y194
X1885Y197
X1885Y201
X19225Y195
X19225Y198
X19225Y202
X20875Y19675
X20875Y19375
X20875Y20075
X172Y21225
X172Y21525
X172Y21925
X1885Y211
X1885Y214
X1885Y218
X19225Y212
X19225Y215
X19225Y219
X20875Y21375
X20875Y21075
X20875Y21775
X19225Y229
X1885Y228
X19225Y232
X19225Y236
X20875Y23075
X20875Y22775
X20875Y23475
X1885Y235
X1885Y231
X172Y22925
X172Y23225
X172Y23625
X126752Y227625
X122815Y227625
X118878Y227622
X114941Y227625
X11075Y227625
X136758Y219367
R03X-014
X080758Y219375
X123875Y214375
R04X-014
X209117Y16075
X21025Y16775
X21025Y16475
X192258Y168
R02Y-0025
X24275Y1825
X24125Y1825
X24275Y16225
X24125Y16225
X323125Y0009998
X323125Y0347498
X306125Y0347498
X288875Y0347498
X323125Y0687498
X306125Y0687498
X323125Y1027498
X306125Y1027498
X288875Y1027498
X323125Y1367498
X306125Y1367498
X288875Y13675
X318875Y134625
X301375Y134035
X301625Y100625
X318875Y100625
X318875Y066625
X300875Y066625
X284625Y032625
X301625Y032625
X318875Y032625
X284625Y-001125
X30175Y-00075
X318875Y-001125
X14725Y16225
X14575Y16225
X133Y136875
X081875Y206375
X088242Y202625
X25Y1055
X30625Y0975
X14925Y-019125
X1455Y136625
X1675Y208
X148Y-02475
X3145Y-018125
X250625Y092
X1417942Y-009742
X314986Y067611
X18925Y236
X16925Y1375
X30325Y-018
X250625Y11
X15425Y-014375
X30025Y0065002
X303125Y0065
X1555Y136625
X1595Y18775
X1429154Y-0085846
X297Y00825
X297Y011125
X235Y208
X18475Y1305
X25Y1325
X3125Y135625
X158Y0275
X295Y011125
X295Y00825
X235Y18775
X18725Y132
X31825Y-018125
X25Y086
X2295846Y-0085846
X20575Y21677
X291625Y0065
X28882Y0065002
X138Y136625
X1595Y22825
X25Y0935
X27175Y06325
X22825Y01575
X2045846Y-01025
X25125Y13125
X3075136Y1337186
X20825Y019242
X25Y0995
X332125Y098375
X2320846Y-01025
X250625Y107
X3075136Y0997186
X1970846Y-0085766
X250625Y095
X2732636Y0657186
X188125Y016875
X1805Y17375
X25Y0965
X278125Y067625
X219375Y016875
X286125Y0065
X28325Y0065002
X19525Y18404
X250625Y113
X2902636Y1005
X2257096Y0145846
X20575Y21475
X28Y011125
X28Y00825
X25325Y137
X2902636Y1345
X22325Y015742
X278Y011125
X278Y00825
X30625Y1315
X25Y1295
X2107096Y0180846
X27182Y0065002
X274625Y0065
X25Y1355
X2982499Y132625
X2345846Y-0085846
X25Y1175
X272Y09725
X2195846Y-0085846
X1795Y17275
X2270846Y-01025
X251Y1265
X3295Y135625
X2170846Y-01025
X25Y1115
X2982499Y098625
X1932096Y0180766
X250625Y101
X3245136Y0997186
X205625Y016875
X250625Y089
X2902636Y0665
X1982096Y0180766
X337375Y04025
X3345Y0402502
X22125Y137489
X337Y169875
X251625Y1205
X278125Y101625
X2120846Y-01025
X33125Y044875
X33125Y042
X332125Y132375
X25Y1235
X2145846Y-0085846
X32925Y042
X32925Y044875
X20575Y18277
X31075Y-018125
X250625Y098
X1995846Y-01025
X32307Y0402502
X325875Y04025
X25Y1085
X3125Y101625
X2307096Y0145846
X203125Y016875
X19525Y19596
X2007096Y0180766
X2157096Y0180846
X216875Y016875
X1475Y208
X148Y1595
X2020846Y-0085846
X218125Y018125
X19525Y199
X3175Y0402502
X320375Y04025
X1855Y181
X2095846Y-0085846
X03725Y188625
X02975Y2065
X31425Y044875
X31425Y042
X1908346Y-0085766
X31225Y042
X31225Y044875
X1907096Y0180766
X30607Y0402502
X308875Y04025
X1855Y18302
X185625Y016875
X201875Y018
X1883346Y-01025
X0136875Y211125
X0035Y23325
X2245846Y-0085846
X0035Y2065
X010875Y1885
T02
X06325Y221
X06325Y223
X06125Y221
X06125Y223
X05925Y221
X05925Y223
X05725Y221
X05725Y223
X05525Y221
X05525Y223
X05325Y221
X05325Y223
X05125Y221
X05125Y223
X04925Y221
X04925Y223
X04725Y221
X04725Y223
X04525Y221
X04525Y223
X063Y21075
X063Y21275
X061Y21075
X061Y21275
X059Y21075
X059Y21275
X057Y21075
X057Y21275
X055Y21075
X055Y21275
X053Y21075
X053Y21275
X051Y21075
X051Y21275
X049Y21075
X049Y21275
X047Y21075
X047Y21275
X045Y21075
X045Y21275
X1025Y23625
X1025Y23825
X1005Y23625
X1005Y23825
X0985Y23625
X0985Y23825
X0965Y23625
X0965Y23825
X0945Y23625
X0945Y23825
X0925Y23625
X0925Y23825
X0905Y23625
X0905Y23825
X0885Y23625
X0885Y23825
X0865Y23625
X0865Y23825
X0845Y23625
X0845Y23825
X1275Y23625
X1275Y23825
X1255Y23625
X1255Y23825
X1235Y23625
X1235Y23825
X1215Y23625
X1215Y23825
X1195Y23625
X1195Y23825
X1175Y23625
X1175Y23825
X1155Y23625
X1155Y23825
X1135Y23625
X1135Y23825
X1115Y23625
X1115Y23825
X1095Y23625
X1095Y23825
X15825Y-03625
X15825Y-03825
X16025Y-03625
X16025Y-03825
X16225Y-03625
X16225Y-03825
X16425Y-03625
X16425Y-03825
X16625Y-03625
X16625Y-03825
X16825Y-03625
X16825Y-03825
X17025Y-03625
X17025Y-03825
X17225Y-03625
X17225Y-03825
X17425Y-03625
X17425Y-03825
X17625Y-03625
X17625Y-03825
X17825Y-03625
X17825Y-03825
X18025Y-03625
X18025Y-03825
X18225Y-03625
X18225Y-03825
X18425Y-03625
X18425Y-03825
X19125Y-03625
X19125Y-03825
X19325Y-03625
X19325Y-03825
X19525Y-03625
X19525Y-03825
X19725Y-03625
X19725Y-03825
X19925Y-03625
X19925Y-03825
X20125Y-03625
X20125Y-03825
X20325Y-03625
X20325Y-03825
X20525Y-03625
X20525Y-03825
X20725Y-03625
X20725Y-03825
X20925Y-03625
X20925Y-03825
X21125Y-03625
X21125Y-03825
X21325Y-03625
X21325Y-03825
X21525Y-03625
X21525Y-03825
X21725Y-03625
X21725Y-03825
X23625Y-03625
X23625Y-03825
X23825Y-03625
X23825Y-03825
X24025Y-03625
X24025Y-03825
X24225Y-03625
X24225Y-03825
X24425Y-03625
X24425Y-03825
X24625Y-03625
X24625Y-03825
X24825Y-03625
X24825Y-03825
X25025Y-03625
X25025Y-03825
X25225Y-03625
X25225Y-03825
X25425Y-03625
X25425Y-03825
X25625Y-03625
X25625Y-03825
X25825Y-03625
X25825Y-03825
X26025Y-03625
X26025Y-03825
X26225Y-03625
X26225Y-03825
X26925Y-03625
X26925Y-03825
X27125Y-03625
X27125Y-03825
X27325Y-03625
X27325Y-03825
X27525Y-03625
X27525Y-03825
X27725Y-03625
X27725Y-03825
X27925Y-03625
X27925Y-03825
X28125Y-03625
X28125Y-03825
X28325Y-03625
X28325Y-03825
X28525Y-03625
X28525Y-03825
X28725Y-03625
X28725Y-03825
X28925Y-03625
X28925Y-03825
X29125Y-03625
X29125Y-03825
X29325Y-03625
X29325Y-03825
X29525Y-03625
X29525Y-03825
X31175Y-03625
X31175Y-03825
X31375Y-03625
X31375Y-03825
X31575Y-03625
X31575Y-03825
X31775Y-03625
X31775Y-03825
X31975Y-03625
X31975Y-03825
X32175Y-03625
X32175Y-03825
X32375Y-03625
X32375Y-03825
X32575Y-03625
X32575Y-03825
X32775Y-03625
X32775Y-03825
X32975Y-03625
X32975Y-03825
X238Y23625
X238Y23825
X236Y23625
X236Y23825
X234Y23625
X234Y23825
X232Y23625
X232Y23825
X23Y23625
X23Y23825
X228Y23625
X228Y23825
X226Y23625
X226Y23825
X224Y23625
X224Y23825
X222Y23625
X222Y23825
X22Y23625
X22Y23825
X218Y23625
X218Y23825
X216Y23625
X216Y23825
X214Y23625
X214Y23825
X212Y23625
X212Y23825
X238Y21575
X238Y21775
X236Y21575
X236Y21775
X234Y21575
X234Y21775
X232Y21575
X232Y21775
X23Y21575
X23Y21775
X228Y21575
X228Y21775
X226Y21575
X226Y21775
X224Y21575
X224Y21775
X222Y21575
X222Y21775
X22Y21575
X22Y21775
X218Y21575
X218Y21775
X216Y21575
X216Y21775
X214Y21575
X214Y21775
X212Y21575
X212Y21775
X168625Y23625
X168625Y23825
X166625Y23625
X166625Y23825
X164625Y23625
X164625Y23825
X162625Y23625
X162625Y23825
X160625Y23625
X160625Y23825
X158625Y23625
X158625Y23825
X156625Y23625
X156625Y23825
X154625Y23625
X154625Y23825
X152625Y23625
X152625Y23825
X150625Y23625
X150625Y23825
X148625Y23625
X148625Y23825
X146625Y23625
X146625Y23825
X144625Y23625
X144625Y23825
X142625Y23625
X142625Y23825
X1665Y21575
X1665Y21775
X1645Y21575
X1645Y21775
X1625Y21575
X1625Y21775
X1605Y21575
X1605Y21775
X1585Y21575
X1585Y21775
X1565Y21575
X1565Y21775
X1545Y21575
X1545Y21775
X1525Y21575
X1525Y21775
X1505Y21575
X1505Y21775
X1485Y21575
X1485Y21775
X1465Y21575
X1465Y21775
X1445Y21575
X1445Y21775
X1425Y21575
X1425Y21775
X1405Y21575
X1405Y21775
X1665Y1955
X1665Y1975
X1645Y1955
X1645Y1975
X1625Y1955
X1625Y1975
X1605Y1955
X1605Y1975
X1585Y1955
X1585Y1975
X1565Y1955
X1565Y1975
X1545Y1955
X1545Y1975
X1525Y1955
X1525Y1975
X1505Y1955
X1505Y1975
X1485Y1955
X1485Y1975
X1465Y1955
X1465Y1975
X1445Y1955
X1445Y1975
X1425Y1955
X1425Y1975
X1405Y1955
X1405Y1975
X1665Y17525
X1665Y17725
X1645Y17525
X1645Y17725
X1625Y17525
X1625Y17725
X1605Y17525
X1605Y17725
X1585Y17525
X1585Y17725
X1565Y17525
X1565Y17725
X1545Y17525
X1545Y17725
X1525Y17525
X1525Y17725
X1505Y17525
X1505Y17725
X1485Y17525
X1485Y17725
X238Y1955
X238Y1975
X236Y1955
X236Y1975
X234Y1955
X234Y1975
X232Y1955
X232Y1975
X23Y1955
X23Y1975
X228Y1955
X228Y1975
X226Y1955
X226Y1975
X224Y1955
X224Y1975
X222Y1955
X222Y1975
X22Y1955
X22Y1975
X238Y17525
X238Y17725
X236Y17525
X236Y17725
X234Y17525
X234Y17725
X232Y17525
X232Y17725
X23Y17525
X23Y17725
X228Y17525
X228Y17725
X226Y17525
X226Y17725
X224Y17525
X224Y17725
X222Y17525
X222Y17725
X22Y17525
X22Y17725
X04575Y-03625
X04575Y-03825
X04775Y-03625
X04775Y-03825
X04975Y-03625
X04975Y-03825
X05175Y-03625
X05175Y-03825
X05375Y-03625
X05375Y-03825
X05575Y-03625
X05575Y-03825
X05775Y-03625
X05775Y-03825
X05975Y-03625
X05975Y-03825
X0085Y-03625
X0085Y-03825
X0105Y-03625
X0105Y-03825
X0125Y-03625
X0125Y-03825
X0145Y-03625
X0145Y-03825
X0165Y-03625
X0165Y-03825
X0185Y-03625
X0185Y-03825
X0205Y-03625
X0205Y-03825
X0225Y-03625
X0225Y-03825
X0245Y-03625
X0245Y-03825
X0265Y-03625
X0265Y-03825
X0285Y-03625
X0285Y-03825
X0305Y-03625
X0305Y-03825
X0325Y-03625
X0325Y-03825
X0345Y-03625
X0345Y-03825
X08175Y-03625
X08175Y-03825
X08375Y-03625
X08375Y-03825
X08575Y-03625
X08575Y-03825
X08775Y-03625
X08775Y-03825
X08975Y-03625
X08975Y-03825
X09175Y-03625
X09175Y-03825
X09375Y-03625
X09375Y-03825
X09575Y-03625
X09575Y-03825
X09775Y-03625
X09775Y-03825
X09975Y-03625
X09975Y-03825
X10175Y-03625
X10175Y-03825
X10375Y-03625
X10375Y-03825
X10575Y-03625
X10575Y-03825
X10775Y-03625
X10775Y-03825
X11475Y-03625
X11475Y-03825
X11675Y-03625
X11675Y-03825
X11875Y-03625
X11875Y-03825
X12075Y-03625
X12075Y-03825
X12275Y-03625
X12275Y-03825
X12475Y-03625
X12475Y-03825
X12675Y-03625
X12675Y-03825
X12875Y-03625
X12875Y-03825
X13075Y-03625
X13075Y-03825
X13275Y-03625
X13275Y-03825
X13475Y-03625
X13475Y-03825
X13675Y-03625
X13675Y-03825
X13875Y-03625
X13875Y-03825
X14075Y-03625
X14075Y-03825
X271Y23625
X271Y23825
X269Y23625
X269Y23825
X267Y23625
X267Y23825
X265Y23625
X265Y23825
X263Y23625
X263Y23825
X261Y23625
X261Y23825
X259Y23625
X259Y23825
X257Y23625
X257Y23825
X255Y23625
X255Y23825
X253Y23625
X253Y23825
T03
X0684999Y2365
X066Y2365
X0634999Y2365
X0610001Y2365
X0584999Y2365
X0560001Y2365
X0534999Y2365
X0510001Y2365
X0485Y2365
X0460001Y2365
X3244999Y23625
X322Y23625
X3194999Y23625
X3170001Y23625
X3144999Y23625
X3120001Y23625
X3094999Y23625
X3070001Y23625
X3045Y23625
X3020001Y23625
X275875Y-014375
X2783751Y-014375
X2808749Y-014375
X2833751Y-014375
X2858749Y-014375
X2883751Y-014375
X2908749Y-014375
X293375Y-014375
X2785Y16225
X2810001Y16225
X2834999Y16225
X2860001Y16225
X2884999Y16225
X2910001Y16225
X2934999Y16225
X296Y16225
X31275Y16225
X3152501Y16225
X3177499Y16225
X3202501Y16225
X3227499Y16225
X3252501Y16225
X3277499Y16225
X33025Y16225
X2785Y12825
X2810001Y12825
X2834999Y12825
X2860001Y12825
X2884999Y12825
X2910001Y12825
X2934999Y12825
X296Y12825
X31275Y12825
X3152501Y12825
X3177499Y12825
X3202501Y12825
X3227499Y12825
X3252501Y12825
X3277499Y12825
X33025Y12825
X2785Y09425
X2810001Y09425
X2834999Y09425
X2860001Y09425
X2884999Y09425
X2910001Y09425
X2934999Y09425
X296Y09425
X31275Y09425
X3152501Y09425
X3177499Y09425
X3202501Y09425
X3227499Y09425
X3252501Y09425
X3277499Y09425
X33025Y09425
X2785Y06025
X2810001Y06025
X2834999Y06025
X2860001Y06025
X2884999Y06025
X2910001Y06025
X2934999Y06025
X296Y06025
X31275Y06025
X3152501Y06025
X3177499Y06025
X3202501Y06025
X3227499Y06025
X3252501Y06025
X3277499Y06025
X33025Y06025
X2785Y02625
X2810001Y02625
X2834999Y02625
X2860001Y02625
X2884999Y02625
X2910001Y02625
X2934999Y02625
X296Y02625
X31275Y0265
X3152501Y0265
X3177499Y0265
X3202501Y0265
X3227499Y0265
X3252501Y0265
X3277499Y0265
X33025Y0265
T04
X02675Y2380001
X02675Y2324999
T05
X03625Y22425
X03625Y22925
T06
X008Y1695501
X008Y17375
X008Y1779501
X0135001Y1695501
X0135001Y17375
X0135001Y1779501
T07
X13265Y003
X1894Y003
X237Y0571
X237Y1371
X12915Y148
X1879Y148
T08
X0007Y1779499
X0007Y1695501
T09
X122Y16
X0835Y0
X0Y056
X304625Y-012
X304625Y060125
X304625Y16225
X25275Y15
X25275Y073
X30425Y-03775
X2875Y2375
X2455Y2375
X135Y2375
X077Y237
X0Y2375
X22675Y-0375
X15025Y-0375
X06925Y-0375
X0Y16
X0Y-0375
X01025Y056
X18325Y0
X24Y0
X24Y064
X24Y15
X1805Y15
X122Y15
X0Y15
X0Y0
X34775Y05925
X34775Y16675
X34775Y-03775
X34775Y2375
M30
