M48
METRIC,LZ
T01C.2
T02C.203
T03C.2032
T04C.3048
T05C.4826
T06C.5461
T07C.6101
T08C.7109
T09C.9911
T10C1.1941
T11C1.4986
T12C1.5999
T13C1.8029
T14C.7109
T15C.8131
T16C.9911
T17C1.016
T18C1.1941
T19C1.5999
T20C1.7018
T21C2.9969
T22C3.0988
T23C3.1999
T24C3.5049
T25C8.001
;LEADER: 12 
;HEADER: 
;CODE  : ASCII 
;FILE  : ECPELCS001-01-1-12.drl for  ... layers TOP and BOTTOM
;DESIGN: ECPELCS001-01.brd
;T01 Holesize 1. = 0.200000 Tolerance = +0.000000/-0.000000 PLATED MM Quantity = 670
;T02 Holesize 2. = 0.203000 Tolerance = +0.000000/-0.000000 PLATED MM Quantity = 2991
;T03 Holesize 3. = 0.203200 Tolerance = +0.000000/-0.000000 PLATED MM Quantity = 648
;T04 Holesize 4. = 0.304800 Tolerance = +0.000000/-0.000000 PLATED MM Quantity = 1435
;T05 Holesize 5. = 0.482600 Tolerance = +0.000000/-0.000000 PLATED MM Quantity = 15
;T06 Holesize 6. = 0.546100 Tolerance = +0.000000/-0.000000 PLATED MM Quantity = 19
;T07 Holesize 7. = 0.610100 Tolerance = +0.000000/-0.000000 PLATED MM Quantity = 10
;T08 Holesize 8. = 0.710900 Tolerance = +0.000000/-0.000000 PLATED MM Quantity = 36
;T09 Holesize 9. = 0.991100 Tolerance = +0.000000/-0.000000 PLATED MM Quantity = 38
;T10 Holesize 10. = 1.194100 Tolerance = +0.000000/-0.000000 PLATED MM Quantity = 3
;T11 Holesize 11. = 1.498600 Tolerance = +0.000000/-0.000000 PLATED MM Quantity = 16
;T12 Holesize 12. = 1.599900 Tolerance = +0.000000/-0.000000 PLATED MM Quantity = 44
;T13 Holesize 13. = 1.802900 Tolerance = +0.000000/-0.000000 PLATED MM Quantity = 2
;T14 Holesize 14. = 0.710900 Tolerance = +0.000000/-0.000000 NON_PLATED MM Quantity = 1
;T15 Holesize 15. = 0.813100 Tolerance = +0.000000/-0.000000 NON_PLATED MM Quantity = 6
;T16 Holesize 16. = 0.991100 Tolerance = +0.000000/-0.000000 NON_PLATED MM Quantity = 6
;T17 Holesize 17. = 1.016000 Tolerance = +0.000000/-0.000000 NON_PLATED MM Quantity = 10
;T18 Holesize 18. = 1.194100 Tolerance = +0.000000/-0.000000 NON_PLATED MM Quantity = 8
;T19 Holesize 19. = 1.599900 Tolerance = +0.000000/-0.000000 NON_PLATED MM Quantity = 2
;T20 Holesize 20. = 1.701800 Tolerance = +0.000000/-0.000000 NON_PLATED MM Quantity = 2
;T21 Holesize 21. = 2.996900 Tolerance = +0.000000/-0.000000 NON_PLATED MM Quantity = 1
;T22 Holesize 22. = 3.098800 Tolerance = +0.050800/-0.050800 NON_PLATED MM Quantity = 2
;T23 Holesize 23. = 3.199900 Tolerance = +0.000000/-0.000000 NON_PLATED MM Quantity = 4
;T24 Holesize 24. = 3.504900 Tolerance = +0.000000/-0.000000 NON_PLATED MM Quantity = 10
;T25 Holesize 25. = 8.001000 Tolerance = +0.000000/-0.000000 NON_PLATED MM Quantity = 1
%
G90
T01
X1212749Y1059751
X1212748Y1053248
X1215999Y1028001
X1206247Y1053253
X1108752Y1079252
X1206247Y1085752
X1199748Y1098752
X1219247Y1118249
X1199748Y1131249
X1193248Y1033751
X110875Y1157251
X1199748Y1053253
X1199748Y1059753
X1206247Y104675
X1189237Y1252587
X1130754Y124454
X1180249Y1033751
X123225Y1131249
X1082748Y1040251
X1238749Y1137749
X108384Y130423
X1115252Y1170248
X125375Y11375
X1160748Y1033751
X1248599Y1144248
X1121749Y1040251
X1102252Y104675
X1147751Y1053253
X1134752Y104675
X1232249Y1150748
X1111236Y1278134
X1076248Y1163748
X1128249Y1040251
X1121752Y1170248
X1117839Y1299082
X110225Y1040251
X110225Y1033751
X107114Y1191058
X1111236Y1252584
X1108752Y1053253
X1115249Y1040251
X1189237Y1331083
X1124238Y1331083
X1182697Y1268586
X1189237Y1308607
X1124338Y1306983
X1130738Y1267316
X1124226Y1236412
X1195737Y1236585
X108925Y1105252
X108925Y1163748
X1111239Y1322851
X1167248Y1033751
X1134752Y1053253
X1216247Y1022
X121275Y1046748
X1180249Y1040251
X1095752Y1053253
X1195737Y1250636
X1206268Y1209488
X122575Y1150748
X110162Y129026
X1128252Y1170248
X123497Y1319394
X1219247Y1170248
X1215239Y1268652
X1238752Y1170248
X1215236Y1242762
X122575Y118975
X109575Y1040251
X1199748Y1170248
X1229382Y130423
X122575Y1124751
X1238752Y1163748
X1202239Y1276273
X1186748Y1053253
X1215236Y1331083
X1219247Y1163748
X1115252Y104675
X1202237Y1323082
X122575Y1163748
X1089247Y104675
X1195737Y1307083
X1193248Y1170248
X1102252Y1066253
X1221736Y1242762
X121925Y12026
X1089247Y1040251
X1199748Y1118249
X1195737Y1243641
X1206268Y1196534
X1115252Y1053253
X1206247Y1163748
X1195737Y1323082
X1246Y1107
X1232249Y1163751
X1195739Y1268652
X1048Y11345
X1186748Y1170248
X1215236Y1291081
X1199748Y1176748
X1202337Y1299082
X1212747Y1098752
X1221739Y1268652
X1238752Y1176748
X108925Y1085752
X1167248Y1066253
X1167251Y1072752
X1167248Y1079252
X1173748Y1066253
X1173751Y1072752
X1199748Y1092249
X1089247Y1157248
X1173751Y1163751
X1128252Y1137749
X1128249Y1131249
X1128252Y1150748
X1147751Y1092249
X1167248Y1118249
X1095802Y1144302
X1115252Y1098752
X1169737Y1307083
X1232249Y1124749
X1128252Y1053253
X1121752Y104675
X1176237Y1299084
X1115252Y1105252
X1121752Y1157248
X1115252Y1137751
X108925Y1118249
X122575Y1053253
X1199748Y1072752
X1193248Y1163748
X1199748Y1163748
X1180248Y1157248
X1141251Y1163748
X1134752Y1163748
X1128252Y1163748
X1115252Y1163748
X1160748Y1144248
X1147751Y1144248
X1160748Y1150748
X1141251Y1144248
X1141251Y1150748
X1147751Y1150748
X1186748Y1150748
X1180248Y1150748
X1167248Y1144248
X1167248Y1150748
X1173748Y1150748
X1115252Y1131251
X1186748Y1092252
X1186748Y1085752
X1186748Y1105252
X1180248Y1105252
X1186748Y1098752
X1180248Y1098752
X1180248Y1092252
X1180248Y1085752
X1052Y11095
X1180251Y1124749
X1180248Y1118249
X118675Y1124749
X1186748Y1118249
X1167248Y1105249
X1102252Y1124749
X1121752Y1137749
X1095752Y1124749
X122575Y1144248
X122575Y1137749
X1121752Y1066253
X1128252Y1066253
X1128252Y1072752
X1167248Y104675
X1167248Y1059753
X1167248Y1053253
X1160748Y1053253
X1095752Y1072752
X1089252Y1072752
X1121752Y1105252
X1212747Y1150748
X1206247Y1131249
X1199748Y1085752
X1212747Y1066253
X1193248Y1053253
X122575Y1105252
X122575Y1059753
X1121752Y1118249
X1121752Y1131249
X10595Y11145
X1206247Y1066253
X1114698Y122181
X113832Y122181
X1193314Y122168
X1195737Y1315084
X1117739Y1315084
X1206247Y117675
X1206247Y1183253
X1173748Y1170248
X1173648Y1176648
X1173748Y118325
X118675Y1176753
X1193248Y1176748
X1128252Y1176748
X1141251Y117675
X1160748Y1163748
X1167248Y1163748
X1147751Y1163748
X117528Y122168
X1182737Y1331083
X1221736Y1315592
X1091739Y1315084
X1195737Y130086
X1221736Y1299082
X1111239Y1299082
X1221736Y1250761
X1169737Y1252584
X1176237Y1236585
X1189237Y1260585
X1169737Y1236585
X1143738Y1252584
X1124238Y1252592
X1130738Y1236585
X1143738Y1236585
X1091739Y1252584
X1147751Y118325
X1108752Y1183253
X1108752Y117675
X1128252Y118975
X1226Y1176748
X122575Y1170245
X108925Y1176748
X108925Y1170245
X1202211Y1331137
X1169737Y1331083
X1150238Y1315084
X1163238Y1315084
X11067Y133344
X1143738Y1331083
X1130738Y1331083
X1208737Y1291081
X1202237Y1282937
X1221736Y1291843
X121338Y12801
X1176237Y128137
X1189237Y127883
X1176237Y1291081
X1117839Y1280862
X1117739Y1290768
X1137269Y129026
X1111236Y1284164
X113718Y127756
X1092Y13
X1091749Y1275963
X123116Y126453
X1208737Y1236585
X1104739Y1236082
X107876Y126232
X108892Y122168
X1147751Y107925
X1147751Y107275
X1134752Y1105252
X1141251Y1098752
X1141251Y1105252
X1134752Y1085752
R02Y00065
X1141251Y1079252
R02Y00065
X1141251Y107275
X1167248Y1098752
X1160748Y1092249
X1180248Y1131249
X1160748Y1098752
X1147751Y1131249
X1160748Y1131249
X1173748Y1131249
X1160748Y1105252
X1160748Y1124749
X1167248Y1131249
X1134752Y1131249
X1141251Y1130995
X110875Y1131249
X1056008Y1106691
X1115252Y1092252
X1108752Y1092252
X1219247Y1079252
X1219247Y1124749
X1219247Y1105252
X1045Y1115
X1108752Y1098752
X1199748Y1105252
X1193248Y1066253
X1206247Y1105252
X1212747Y1105252
X1115252Y1079252
X1095752Y1118249
X10875Y1299
X105275Y11215
X1137406Y1299252
X1115252Y1118249
X1143738Y1307083
X108003Y1271642
X1212747Y1072752
X105675Y1128
X1180248Y1072752
X12945Y0412
X1046501Y1124749
X1108752Y1144248
X1108752Y1137749
X1212747Y1092252
X1212747Y1079252
X1193248Y107275
X1102252Y1118249
X1102252Y1131249
X1212747Y1124749
X1095752Y1105252
X1202237Y1307083
X1212747Y118325
X1186748Y1066253
X1202237Y1315084
X1212747Y1176748
X1108752Y1124751
X1095752Y1092252
X1215236Y1315592
X1206247Y1170248
X1147751Y1170248
X1199748Y104675
X1095752Y1085752
X1215236Y1250761
X121925Y118975
X1206247Y1118249
X1115252Y1144251
X1219247Y1072752
X103625Y1105
X1102252Y1144248
X1219247Y1066253
X1219247Y1098752
X1095752Y1098752
X1102252Y1105252
X1176237Y1244586
X117528Y120898
X1206247Y1092252
X120068Y1200598
X1182737Y1315081
X1128252Y118325
X1137238Y1260585
X1111239Y1315084
X1102252Y1176748
X1219247Y1092252
X1182737Y1260585
X1186748Y118975
X1186748Y1040251
X1115252Y1072752
X1115252Y118975
X1130738Y1315081
X1186748Y1033751
X10355Y1118249
X1108752Y1170248
X1098239Y1315592
X1147751Y1176748
X1180251Y118975
X1176237Y1252587
X1102252Y1079252
X1202237Y1250761
X124386Y1191058
X108925Y1137749
X1206247Y1098752
X117624Y1307083
X1199748Y118325
X1169737Y1268586
X1173748Y118975
X1186751Y1059752
X1102252Y1137749
X1141251Y118325
X1143738Y1268586
X1193248Y1059753
X1108752Y1118251
X1202237Y1258762
X124894Y1191058
X1160748Y118325
X1176237Y1268586
X1180248Y117675
X1212747Y1085752
X1111239Y1307083
X1102252Y118325
X119687Y120771
X1176237Y1315081
X1102252Y1098752
X1137238Y1315081
X1115252Y1196359
X1160748Y1170248
X1141251Y118975
X1137238Y1252587
X1128252Y119625
X1137238Y1268205
X1121686Y121279
X1130738Y1299082
X1193248Y119625
X1182737Y1307083
X1173748Y119625
X1165938Y1277362
X1134752Y118975
X1130736Y1252587
X1137238Y1307083
X1121737Y1206694
X1219247Y1111749
X1098236Y1252584
X109575Y119625
X1102252Y1092252
X1143738Y1276587
X1144759Y1199181
X1115252Y1124751
X1134752Y1144248
X1141249Y1059753
X1199748Y1124749
X1095752Y113775
X1206247Y1137749
X1212747Y1118249
X1206247Y1072752
X1206247Y1059753
X1206247Y1150748
X1115249Y1150748
X1102252Y1157248
X1232249Y1137749
X11067Y120644
X1117756Y125261
X1147752Y104675
X1134749Y1040251
X1091737Y1243463
X1088993Y1206052
X1154249Y1033751
X120625Y1157248
X1246Y1112
X108925Y1131249
X1167248Y1040251
X1102252Y1150748
X1128249Y1033751
X1212747Y1137749
X1141249Y1033751
X1199747Y1144247
X1095752Y1131251
X110875Y1040251
X1095752Y1163748
X1091739Y1331083
X1102252Y1053253
X122575Y1131249
X1115249Y1033751
X1117736Y1244586
X1102252Y118975
X1111236Y1259084
X106606Y1191058
X1212747Y1144248
X107625Y1170248
X1104482Y1268586
X1117639Y1307083
X1115252Y1176748
X1241483Y115125
X1212747Y1157248
X1108752Y115075
X1180248Y104675
X1095752Y1150778
X1095752Y104675
X1199748Y1137749
X1089037Y119625
X1104736Y1243463
X1134749Y1033751
X1206247Y1144248
X1102252Y1085752
X1238749Y1118249
X1199747Y1150747
X1095752Y1079252
X1108752Y1072752
X1108752Y1085752
X1160748Y1176748
X1176237Y1323082
X1232249Y1118249
X1160748Y1040251
X1078526Y1319374
X1102252Y1170248
X1141249Y1040251
X1076248Y1176748
X1091737Y1268586
X110875Y1033751
X1102252Y1072752
X1089247Y1033751
X109575Y1033751
X1173748Y1033751
X121925Y1150748
X1108752Y1105252
X1108752Y1163748
X1117739Y1323082
X1193248Y1040251
X1128253Y104675
X1117836Y126884
X108275Y1163748
X1108752Y104675
X1154249Y1040251
X1173748Y1040251
X12645Y11265
X1186748Y104675
X1219247Y117675
X1089121Y1144272
X1141251Y1170248
X1134752Y118325
X1206247Y1124749
X1219247Y1144248
X121925Y1131249
X1082845Y1157245
X107625Y1157248
X1173748Y1124749
X1173748Y1118249
X1121752Y1144248
X108925Y1124749
X1128252Y1105252
X1128252Y1098752
X1147751Y1098752
X1121752Y1124749
X1128252Y1118249
X1141251Y1118249
X1134752Y1124749
X1147751Y1124749
X1147751Y1118249
X1147751Y1105252
X108925Y1098752
X1121752Y1092252
X1115252Y1085752
X1219247Y1059753
X1141251Y1053253
X1114698Y1216471
X11752Y1214
X1193314Y1216092
X1165938Y1282442
X110035Y133344
X1195737Y1291081
X1234208Y1300928
X1208737Y1299082
X1208737Y1315589
X1208711Y1331213
X1195737Y1331083
X1228236Y1315338
X1182737Y1291843
X1189237Y1315084
X1176237Y1331083
X115623Y132074
X1150238Y1308353
X1163238Y1308353
X1169737Y1315084
X1189237Y1323082
X1111339Y1289457
X1137238Y1331083
X1124238Y1323082
X1117739Y1331083
X1104739Y1307083
X1104739Y1299082
X1124238Y1291081
X1143738Y1323082
X1124238Y1315084
X1143738Y1315084
X107368Y130423
X1085239Y1315084
X1208737Y1268586
X121846Y12801
X1195737Y1277857
X1228236Y1250761
X1182737Y127883
X1169737Y1244586
X1176237Y1260585
X1169737Y1260585
X1117839Y127483
X1104736Y1260839
X1111236Y1243563
X1143738Y1260588
X1130738Y1260585
X1124238Y1244586
X1143738Y1244586
X112829Y127756
X1086255Y1251822
X109908Y1275963
X1182737Y1252584
X1195737Y1230593
X1208737Y1244586
X113832Y1216471
X1124226Y1231332
X11067Y120136
X108892Y12166
X1098747Y1236082
X120625Y118975
X1232249Y1176748
X1232249Y1170248
X1212747Y1170248
X1212747Y1163748
X121925Y1157248
X122575Y1157248
X1180248Y1170248
X1160748Y118975
X1180348Y1183248
X1193248Y118975
X1167248Y1176748
X1167248Y1170248
X1167248Y118325
X1186748Y1163748
X1167248Y1157248
X1160748Y1157248
X1173748Y1157248
X1121752Y1176748
X1102252Y1163748
X1121752Y1163748
X1147751Y1157248
X1128252Y1157248
X1134752Y1157248
X1141251Y1157248
X1095752Y117675
X108275Y1170248
X108275Y1176748
X1225747Y1118249
X119325Y1131249
X1160748Y1137749
X1186748Y1144248
X1193248Y1157248
X1180248Y1144248
X1193248Y1137749
X1180248Y1137749
X1173748Y1137749
X1167248Y1137749
X1193248Y1144248
X1199748Y1157248
X1147751Y1137749
X1141251Y1137749
X122575Y1092252
X1193248Y1085752
X1193248Y1105252
X1193248Y1098752
X1193248Y1092252
X1160748Y1059753
X1160748Y1066253
X1160751Y1072752
X1160751Y1079252
X1160748Y1085752
X1147751Y1085752
X1173748Y1092252
X1173748Y1085752
X1180248Y1079252
X118675Y1072752
X1167248Y1085752
X1173748Y1105252
X1173748Y1098752
X1186748Y1079252
X1128252Y1085752
X1121752Y1079252
X1128252Y1092252
X1121752Y1085752
X1147751Y1066253
X1128252Y1079252
X1134752Y106625
X108925Y1079252
X1247Y1042
X124386Y102356
X1232496Y1033024
X1160748Y104675
X1173748Y1053253
X1173748Y1059753
X1095752Y1066253
X1121752Y1059753
X1115252Y1066253
X1108752Y1066253
X1082748Y1033751
X107625Y1040251
X1199748Y1066253
T02
X13155Y0468498
X0688Y03705
X1323501Y0436502
X13155Y0428501
X0744Y0333
X073308Y038242
X1323501Y0460499
X126375Y0215
X12225Y0215
X12575Y0215
X121625Y0215
X111Y002
X111625Y002
X106875Y002
X1075Y002
X111Y0215
X111625Y0215
X1075Y0215
X106875Y0215
X06545Y06055
X0677499Y0612499
X0673Y0615
X06375Y0351
X0724Y0501
X0732501Y0507501
X073Y05005
X0737Y0502
X1309Y0791255
X13135Y0825
X11045Y0734
X1089Y07365
X06765Y0372
X1133Y07335
X1154Y0774
X07675Y0587
X076Y05785
X0756999Y0592499
X1157Y08025
X12525Y04595
X1167Y022
X14845Y01895
X0968251Y0297999
X1228Y08795
X12985Y08035
X13085Y08295
X12195Y08
X1325Y0901
X1252Y10075
X1614Y08265
X1253Y10155
X1052Y03165
X06535Y03635
X1304Y1128
X1203Y04525
R03Y-001
X1203Y04625
X1203Y04125
X1351251Y0819251
X1252631Y0829
X13715Y08675
X1269423Y0842
X1351251Y0876249
X12635Y0845
X1336Y0877
X12565Y0877
X064Y038
X064Y039
X1276Y08765
X08415Y035
X12635Y0391
X08415Y033
X1257Y0391
X08415Y026
X08415Y027
X08415Y03
X08415Y032
X1178Y04125
X07685Y0349
X0725918Y0357582
X1178Y04625
X1245Y088
X1178Y04425
X0737417Y0336083
X1178Y04225
X07565Y03405
X048008Y024992
X0485Y031375
X07375Y0344081
X1178Y04525
X1178Y04325
X075Y0348082
X1854429Y0893571
X1859977Y0888023
X1435499Y0396502
X1443498Y0396502
X1443498Y0428501
X18215Y06105
X1435499Y0428501
X18215Y06175
X0419678Y0340322
X12Y0915
X12005Y0967
X1252Y097
X0494223Y0395
X1324Y11265
X1870429Y0887429
X0084199Y0196998
X0381777Y016
X1598Y052
X1536Y0691
X1248791Y0701
X1622Y04775
X0465Y005
X04725Y017875
X1698Y05075
X127Y0699
X1541Y0652
X0285Y1045
X1622Y04575
X1598Y05075
X124Y0721
X1542Y071
X1108771Y07075
X1123Y0393
X0285Y101
X17509Y10919
X1622Y04675
X0144198Y0326998
X0236Y0293723
X1548Y04275
X1536Y0661
X12315Y06945
X1159Y0393
X1099Y0707
X1017554Y1037
X02175Y10975
X17801Y10919
X1648Y05275
X1542Y068
X1266042Y0705
X1142Y0475
X1089Y0707
X1698Y05175
X1385Y055
X1079Y0707
X1135Y0393
X0285Y1005
X17796Y11046
X092Y12175
X09035Y12375
X0879623Y1156
X0705Y064375
X1843Y09115
X1598Y05275
X1542Y076
X1224Y073
X09325Y12175
X09035Y12275
X0871777Y1156
X07Y064375
X0077753Y0196998
X0388223Y016
X1884Y08505
X1548Y04675
X1232Y0742
X1536Y0761
X0144198Y0196998
X0236Y0151223
X18815Y0926
X1548Y04975
X1228Y0701
X1536Y0681
X0500001Y1127499
X1717Y1142
X1698Y05375
X1536Y0731
X1248Y072
X063008Y1255
X1726Y0447
X14195Y05245
X1715Y1369
X1354Y1366
X0445Y0065
X044875Y0235
X1648Y04775
X1403498Y0532498
X1468Y0657
X2415Y1154
X1246742Y0455766
X01307Y10877
X1648Y04975
X1398Y0543
X1362Y1372
X16925Y1389
X12355Y04125
X0144198Y0456998
X0236Y0433723
X0961749Y0297999
X1598Y04675
X0285Y103
X1779Y1125
X0716Y06185
X1084511Y08805
X1098346Y07
X0269Y0435223
X0336Y0250723
X1698Y04775
X1467498Y0532498
X0582Y11185
X07105Y06185
X1076665Y08805
X10905Y07
X0269Y0288777
X0330059Y0204277
X1648Y04275
X13155Y0532498
X1322999Y0651
X04675Y02235
X047758Y012883
X0523549Y1130086
X0583499Y1105001
X046734Y1295
X0582499Y1089999
X0578749Y1085001
X0578749Y1069999
X0485001Y1075001
X0485001Y1099999
X05825Y10535
X0462498Y030875
X0422498Y028625
X0432498Y030875
X0352498Y0285002
X0417499Y0258751
X0362501Y0259
X0467418Y0196
X0467418Y0213668
X04475Y0190001
X0359Y014758
X0342Y0184999
X032262Y0156
X0327Y0180001
X0268Y0152223
X0361Y0161
X1648Y05075
X1751Y11675
X1648Y05175
X1698Y04875
X1451499Y05245
X1779Y1155
X18745Y09015
X1548Y04775
X1411499Y0532498
X02125Y121875
X029Y11625
X024258Y112617
X07685Y11825
X08025Y11475
X079Y1145
X0775Y1145
X086Y1262
X029Y11425
X07395Y1014
X0724Y0985
X076Y1014
X072Y0977
X07735Y09445
X0712Y0956
X073742Y095642
X156Y0537
X1598Y04975
X1464586Y0541545
X02625Y10975
X09875Y10375
X1598Y04375
X1451499Y0532498
X1445Y0620002
X1752748Y0591252
X191492Y056808
X19025Y05685
X18925Y05685
X18725Y0527
X1829Y0558
X1831248Y04745
X1648Y04475
X1299001Y0611
X1361Y0553
X1139Y0737
X1122Y08015
X0487777Y0395
X1698Y04575
X1443498Y05245
X1779242Y1134242
X1572Y05375
X1866893Y0883893
X1548Y05175
X1307502Y0532498
X0189628Y1037928
X063Y1245
X1648Y04875
X14Y1057594
X1648Y04575
X14595Y05245
X14125Y1058094
X1598Y04775
X1698Y04675
X1248Y04625
X2415Y1178
X13155Y0492498
X020375Y10325
X09625Y002
X05845Y09555
X05845Y0936
X0585Y0926
X13875Y1057594
X1598Y04275
X1403498Y05245
X125Y0442
X1347499Y0476499
X2415Y1234
X12385Y04025
X0527499Y0287501
X1375Y1057594
X1875977Y0892977
X134009Y0546957
X2415Y1274
X1249Y0437
X1648Y04675
X1375501Y0542
X1252Y05085
X1244Y0418
X2415Y1314
X13155Y0508498
X09475Y004625
X099742Y012883
X099742Y009883
X18915Y087
X1598Y04575
X1370931Y0544031
X0195Y1259
X1548Y04575
X0162Y1275
X0195Y1275
X1548Y04475
X1598Y04885
X147Y0544
X09675Y002
X1427498Y0532498
X0285Y107
X1318Y10895
X13945Y0764
X12065Y05775
X082625Y0985
X1672Y05275
X126625Y076375
X23525Y09105
X2363Y08995
X22255Y0845
X1855Y0943
X1299001Y0619001
X132135Y10055
X12655Y0525
X2036Y103
X21735Y08275
X1435499Y0532498
X1051Y1004
X039475Y1225
X0395Y1263
X13435Y0542
X10355Y1134
X10405Y1134
X10305Y1134
X1672Y04675
X1331499Y0540499
X1121749Y1031
X2074Y1037
X1443498Y0532498
X2003Y0986
X1672Y04575
X1433919Y0545243
X1001Y11675
X04345Y10325
X092075Y107775
X09715Y11255
X149992Y092234
X0445Y08675
X0369576Y0783326
X2012Y1029
X1672Y04775
X1307501Y05405
X1252Y0983
X2053Y1041
X2408Y0314
X19715Y02225
X064Y0656
X0806Y0666
X0826Y1145
X1235Y0947
X1427498Y0540499
X1025502Y1260502
X1027Y1279
X035125Y078875
X2063Y1037
X1622Y04275
X1154Y1023
X117Y1024
X1672Y04875
X2184Y08625
X1387501Y0532498
X1026498Y1085502
X10355Y10855
X1962Y1036
X1622Y04375
X1065206Y1157435
X2046Y1039
X1263749Y0112499
X13285Y0168
X1572Y04275
X1411499Y0540499
X2023Y1013
X1672Y05075
X1427498Y05245
X1142Y0823
X13005Y08735
X121646Y086296
X060742Y018442
X06865Y01925
X07965Y06425
X0681002Y0489002
X0626Y06775
X069016Y071016
X07175Y07035
X07075Y0704
X08055Y0676
X0912681Y0592819
X0927Y06785
X115492Y075508
X1144Y0764
X11205Y0764
X11015Y07645
X1089Y07635
X1079Y07635
X1344Y11135
X1344Y10935
X1344Y10835
R06Y-001
X1344057Y1010745
X1344Y10035
X07615Y09435
X0762Y09575
X0747499Y0923001
X074992Y093792
X0255001Y0820001
X1215Y0922
X1175Y0922
X1185Y0922
X1265Y0922
X1255Y0922
R02X-001
X01725Y1228
X1205Y0922
X034Y086125
X092518Y075732
X0935182Y0757318
X2058Y10315
X11975Y01175
X1403Y02275
X17506Y11046
X13835Y0542
X0344Y078875
X1441Y0548
X1972Y0986
X1672Y05175
X1252Y0977244
X1995Y1029
X0564Y1127
X204Y1039
X1672Y04475
X1575498Y0762998
X15635Y0772
R02Y-001
X15775Y0727
X15775Y0734
X15635Y0742
R02Y-001
X1576999Y0717499
X15635Y0712
R06Y-001
X205Y1021
X0504999Y1132499
X1572Y04375
X1751Y11427
X09585Y11695
X09815Y11695
X0974Y11695
X09665Y11695
X037875Y080375
X1391Y0723
X15005Y07225
X141522Y0699999
X141592Y074008
X1356Y0707
X1355Y0699
X1499Y0655
X15Y0667
X1523Y0694
X1523Y0685
X1415Y0655
X1415Y0665
X1355Y0659
X1356Y0668
X1355Y0682
X13Y067
X1502Y0615
X1502Y0625
X1501Y0635
X1499Y0645
X1416Y0612
X1354Y0647
X1354Y0639
X1298Y0643
X14385Y0606
X13Y0629
X1622Y04475
X11515Y05145
X1307502Y0516499
X1977Y1017
X0291Y084
X222325Y083875
X12325Y076375
X1572Y04775
X115Y04705
X1119Y0707
X132175Y099575
X0315283Y0862963
X0361039Y0755961
X0262502Y0767502
X03365Y077275
X1937Y1038
X2348Y09145
X2353Y08985
X22195Y08425
X1255Y076375
X1622Y04975
X0608Y0435
X08025Y0965
X1998Y1015
X0863Y1222
X0775Y1175
X0792Y12175
X1672Y05375
X11625Y04965
X2012Y1036
X03025Y0865
X233095Y080005
X2327Y0782
X12775Y076375
X2189Y07325
X1889Y0875
X1698Y04975
X19625Y1017
X02875Y08075
X02875Y074375
X1622Y04875
X1162499Y0489999
X1139Y0707
X1179Y0482
X1977Y1027
X0354Y1445
X0359Y1448
X0354Y1463
X0354Y1457
X0359Y146
X0354Y1451
X0359Y1454
X0292498Y0877
X0280078Y0811
X0324001Y0862249
X0286Y0847
X0294093Y0824099
X1622Y05275
X1165Y0393
X1129Y0707
X1968Y1023
X0324999Y0749999
X030375Y078875
X0832501Y1173499
X16165Y05425
X0344Y1449
X0344Y1443
X0339Y144
X0339Y1446
X0344Y1455
X0339Y1452
X0339Y1458
X0613Y15
X0613Y1494
X0618Y1497
X0613Y1488
X0613Y1482
X0618Y1485
X0618Y1491
X1977Y104
X1572Y04675
X02875Y0826999
X1622Y05075
X1142Y0463
X0907Y0173
X0893Y0159
X0305Y087625
X1572Y04975
X1149Y0707
X1171Y0393
X1947Y1028
X02925Y0819001
X1572Y05075
X0715846Y0501
X06375Y029375
X1321754Y1078297
X1942Y1017
X0292Y0845
X0667499Y0612499
X0799Y0599
X0806Y0599
X07695Y0604999
X0762Y05735
X0640925Y0597175
X064125Y06075
X06525Y057375
X0652Y05515
X0718832Y0482418
X0720288Y050625
X0719145Y0467825
X071882Y04575
X1572Y05175
X1637Y07695
X21955Y07525
X2354732Y0752268
X164008Y055408
X13515Y0951
X131475Y113625
X0708Y0501
X06375Y028875
X082125Y09625
X0292251Y0813
X0642Y051
X0640925Y0572175
X064125Y05825
X0652501Y0567501
X0652501Y0527501
X0702501Y05035
X0702Y0482418
X0640925Y0484675
X0676321Y04575
X0676646Y0467825
X0698923Y04875
X0657442Y0270058
X1926Y1028
X0510001Y1127499
X114Y06275
X116Y0561
X11425Y05615
X1125Y0562
X11075Y0562
X1488Y04245
X1025Y02975
X1025Y031
X09725Y0267
X09625Y0267
X09125Y02975
X09045Y03255
X09825Y03875
X14055Y078942
X1569001Y0705001
X1616501Y0694999
X15715Y06845
X15745Y0671
X11955Y06
X111555Y060095
X1213Y0551
X1231Y04925
X12445Y0504
X1211501Y0485001
X116975Y0479
X1161001Y0505001
X1210999Y0469999
X12125Y04625
X1212Y04525
R02Y-001
X127625Y041125
X12115Y04225
X127875Y037225
X093Y0345
X1431Y0336
X100742Y031883
X09885Y01215
X12755Y0001
R02Y-0006
X12695Y-0011
X12635Y-0011
X12635Y-0005
X12695Y-0005
X12695Y0001
X12635Y0001
X0691077Y04875
X0662442Y0270058
X02875Y0831999
X0688923Y0497335
X0659715Y0262285
X10165Y1118
X1908Y1028
X029375Y0835
X11655Y01375
X1165Y01075
X0681077Y0497335
X0664715Y0262364
X061975Y125625
X1482894Y0472606
X0673923Y0497335
X0672Y025875
X0268Y09
X0293008Y07975
X1320677Y1095177
X1887Y1028
X11925Y00975
X11925Y01325
X04Y078375
X03675Y075
X0354998Y075
X0342499Y0752
X032625Y078375
X036875Y08225
X030875Y0865
X1245Y0947
X0906Y1282
X0847499Y1181501
X0666077Y0497335
X0677Y025875
X0842501Y1247499
X0842501Y1191
X0817Y1191
X1313Y10655
X21935Y0828
X0655Y0646
X0769Y0592499
X0769Y0611248
X0745Y0482418
X06725Y0646
X0758749Y0567501
X0652501Y0557501
X0742501Y05065
X0677499Y0503751
X079625Y097
X04725Y085
X110754Y058596
X13165Y104
X2189Y08315
X08175Y09825
X1258213Y0386149
X1397Y102
X1385Y10255
X1415Y10195
X1265Y0947
X0827499Y1181499
X080625Y09825
X032Y07825
X043875Y08425
X1294Y0399
X197255Y050005
X161Y0503
X1572Y04475
X1511Y0469
X1299132Y0998552
X1295Y01075
X1295Y01375
X1255Y0947
X1219Y06715
X1542Y067
X1515Y0493
X075986Y0213891
X074338Y0273572
X13185Y10745
X075986Y0208891
X073838Y0273572
X1355Y0179
X0716365Y0210115
X0716928Y0264535
X09615Y1128
X0716333Y0215115
X0711928Y0264535
X1663Y10135
X1843Y09515
X0589Y0986
X066986Y0213891
X070719Y0267811
X0796Y0811
X1220798Y0875702
X21945Y07425
X066986Y0208891
X070219Y0267811
X04525Y028625
X0422501Y0275
X0432498Y0286252
X0392501Y0274999
X038558Y029242
X0329065Y0260001
X0342Y0240001
X032008Y02355
X0342Y0224999
X032008Y0219
X0412501Y017
X0427499Y017
X0377499Y017
X0342Y0200001
X0326Y0200001
X0441Y014758
X0425999Y014758
X0408Y0143
X0371Y014758
X1316Y1044996
X218962Y075538
X0626365Y0210115
X069375Y02675
X14195Y0540499
X09555Y11305
X0626333Y0215115
X068875Y02675
X13195Y1017
X2072Y0609
X1725Y10825
X1724Y11095
X14035Y024
X1459Y02355
X12975Y01525
X124Y015125
X12225Y015125
X10925Y015125
X1075Y015125
X12675Y01075
X123Y008375
X12375Y008375
X11975Y01075
X10825Y008375
X109Y008375
X112Y01075
X105Y01075
X1521Y049
X0585Y02
X1205Y0947
X125985Y04665
X1522Y0521
X1514Y0521
X1497Y0519
X148725Y046825
X1478Y0468
X1467498Y04605
X1261Y0261
X1261Y0255
X1269Y0255
X1269Y0261
X1253Y0261
X1253Y0255
X1261Y0249
X1269Y0249
X1253Y0249
X0575Y02
X039375Y07925
X2079Y0603
X20615Y0618
X0913Y07515
X126375Y002
X12575Y002
X12225Y002
X121625Y002
X2053Y0699
X1922Y1017
X034252Y03915
X21925Y066
X00635Y11765
X0056875Y1146875
X0109Y124
X015Y1247
X1572Y04575
X15125Y0477
X18915Y0991
X03635Y039108
X2068Y0614
X031375Y0780642
X2195Y0723
X03755Y03815
X12525Y1001
X081125Y096625
X0361166Y077875
X1375Y10195
X1381Y1029
X0166Y126725
X052008Y023758
X1319Y1100088
X1884Y097
X12525Y09945
X1321Y1031
X13205Y1062
X1295Y10655
X0395Y031
X04Y031
X080125Y097625
X1317Y11145
X1484Y0329
X114Y0947
X05025Y085625
X0405999Y106
X0405999Y1174999
X0195Y12475
X1175Y09465
X044425Y085125
X0412Y1045
X0195Y1254
X0410999Y1180001
X1185Y0947
X039625Y080125
X14035Y1022
X095Y0750666
X13415Y01685
X07395Y0989
X07375Y095
X10115Y1115
X00175Y11725
X08415Y031
R02Y-003
X0614Y04
X0607Y0415
X0614Y039
X0614Y038
X06255Y03635
X0565Y0201
X0642Y0329
X0701Y0383
X185Y04205
X13215Y1052
X19025Y0855
X14715Y08435
X2222Y08225
X2369Y08985
X12915Y0873
X20325Y0945
X234365Y079965
X23355Y0789
X1318Y1023
X014875Y1147999
X0215Y11725
X1672Y04975
X1622Y05375
X1322Y1105
X03675Y0805
X00175Y11625
X004875Y1165001
X0126134Y1186133
X107175Y105275
X1216Y07865
X1248Y0787
X2197Y06555
X23745Y07925
X22945Y07925
X222Y07625
R02Y-001
X2221Y07225
X00175Y11825
X012625Y11425
X1888Y0926
X1695Y1045452
X187Y08345
X18905Y0823
X1974591Y0548909
X1804Y1057
X1804Y10425
X1217002Y0289002
X0213Y1191
X0219499Y1163499
X137258Y143908
X025375Y1045
X138258Y143908
X014875Y11375
X02625Y1155
X0642081Y0300081
X0678Y0253
X0634998Y0270002
X06355Y02575
X0328275Y1057975
X0108Y0367
X0338Y0219
X019Y1013999
X1454002Y0328998
X1394002Y0328998
X1364002Y0328002
X1128Y0001
R02Y-0006
X1122Y-0011
X1116Y-0011
X1116Y-0005
X1122Y-0005
X1122Y0001
X1116Y0001
X0269Y0080223
X0401554Y016
X134758Y143908
X0328275Y0997975
X14275Y057
X12685Y06155
X1637Y07215
X16265Y0565
X14195Y0532498
X1443498Y0540499
X1355Y057
X1385Y057
X1372Y057
X1345Y057
X1335Y057
X1387501Y05245
X1363Y0542
X1273Y0556
X1257Y0334
R02Y-0008
X1249Y0318
X1241Y0318
X1241Y0326
X1249Y0326
X1249Y0334
X1241Y0334
X044125Y005375
X044625Y01775
X135758Y143908
X1225Y0947
X025375Y0985
X0084199Y0326998
X0334Y0195723
X1195Y0947
X025375Y099
X132383Y143908
X025375Y107
X1018Y01375
X10175Y01075
X1256Y02945
X133383Y143908
X0301725Y0987025
X043625Y006125
X04325Y01625
X11475Y01075
X11475Y01375
X0722499Y0372501
X07175Y0365
X0704429Y0365679
X0707498Y0375002
X0694999Y0375001
X0695Y03685
X0632578Y0364192
X06405Y03435
X0749919Y0298081
X0635Y03275
X0084199Y0066998
X0416777Y0156
X1207Y071492
X0196044Y1001001
X0357499Y0275501
X134133Y148283
X1221Y0279
X00175Y11675
X004875Y1160001
X0126134Y1181133
X0185Y10492
X047625Y0105
X04725Y021875
X133133Y148283
X1293251Y0453749
X0917Y10965
X0196044Y1057999
X1045Y00975
X1045Y01325
X188708Y094008
X0301725Y1017025
X0501169Y027875
X1286Y0477
X0196044Y1006001
X13725Y1483
X012625Y11525
X004875Y1144999
X025375Y1005
X0769162Y0617498
X0137752Y0196998
X0236Y0144777
X0196044Y1052999
X0114446Y0107
X0398223Y0152
X1365Y1483
X0301725Y1047025
X105Y01175
X0236Y0078723
X0144198Y0066998
X0285Y105
X0185Y10442
X1116249Y0112499
X1153Y0909
X004875Y1180001
X012125Y11725
X025375Y101
X10605Y1086
X068825Y037625
X0582Y0252
X06375Y03325
X0575Y0229
X09325Y11935
X0936346Y1158
X025375Y1065
X015125Y118875
X1038723Y1037
X0301725Y1077025
X0236Y0072277
X0137752Y0066998
X0285Y1065
X019Y1008999
X0108Y0107
X0391777Y0152
X02575Y10975
X0993946Y10375
X025375Y105
X0189628Y1032928
X0331407Y0272
X0114446Y0497
X0328275Y0967975
X088Y058875
X06355Y03185
X06325Y0336
X075027Y027
X0729582Y0257582
X0709Y02525
X0635Y0283
X06675Y02525
X0328275Y1027975
X087625Y071125
X0882585Y069625
X045625Y004625
X04625Y017875
X1838429Y061177
X14595Y0516499
X092Y11935
X09285Y1158
X0971Y1137
X0269Y0073777
X0408Y016
X1843977Y0617318
X0146Y126
X0937679Y0724821
X0920179Y0724821
X0077753Y0326998
X0334Y0189277
X098Y1207
X004875Y1139999
X012625Y11475
X0209372Y0991872
X0108Y0237
X0343898Y0169223
X046Y004125
X0462499Y0250001
X12915Y1207
X09125Y06475
X092Y06335
X0137752Y0326998
X0236Y0287277
X0885Y058875
X1868Y0582
X0285Y1025
X13385Y1232
X044875Y00575
X045375Y024
X109015Y060035
X117015Y05895
X127273Y05085
X137125Y076375
X09025Y11335
X1289531Y0767005
X110285Y060035
X118285Y060035
X1867819Y0574262
X1182Y0967
X1021Y11455
X07375Y0944
X00175Y11475
X012625Y116875
X0337853Y0272
X0108Y0497
X11425Y05865
X109015Y069465
X117015Y069465
X1331835Y0776835
X0999Y1159
X0744Y09565
X014875Y11425
X02625Y116
X0754Y09565
X04525Y005
X04575Y0255
X0269Y0295223
X0330059Y0210723
X1288Y0507
X118285Y069465
X110285Y06945
X1125Y05875
X134321Y077671
X014875Y1152999
X021Y11725
X129Y05355
X107745Y060035
X115745Y060035
X1354335Y0776835
X1293251Y0470749
X13435Y11575
X004875Y1185001
X012125Y11775
X0285Y099
X1777377Y0411
X0114446Y0237
X0343898Y0162777
X1542Y069
X1244Y0711
X1440498Y0357502
X1208485Y0722
X1542Y073
X1542Y07
X126Y0713
X0017501Y1157499
X0151Y1255
X0077753Y0066998
X0423223Y0156
X1395Y05495
X07275Y0645
X0285Y0985
X1786498Y0235
X0269Y0428777
X0336Y0244277
X1536Y0741
X124Y073
X1024Y1037
X02125Y10975
X0268Y0145777
X0361Y0154554
X1536Y0771
X1244Y0736
X1785223Y0411
X12995Y05405
X11805Y07095
X111555Y069465
X1320165Y0776335
X1542Y074
X1215Y0728
X1136595Y0908405
X00175Y11425
X012625Y116375
X1536Y0751
X1224Y0738
X10545Y1088
X1778652Y0235
X00175Y11875
X012625Y11375
X1387501Y0516499
X1542Y072
X12525Y07125
X18915Y086
X1598Y04475
X1536Y0671
X12215Y06775
X1548Y05275
X1536Y0721
X1252Y0724
X0331763Y0235723
X0084199Y0456998
X1548Y05075
X1536Y0701
X1232485Y07125
X115Y0947
X1548Y04875
X18745Y0909346
X1542Y066
X1235Y0688
X1411499Y05245
X0114446Y0367
X0338Y0214
X1548Y04375
X1542Y075
X12135Y07335
X0414678Y0340322
X113Y0947
X0331763Y0229277
X0077753Y0456998
X18425Y0917
X1598Y05375
X132792Y115
X1648Y04375
X1536Y0711
X1258042Y0704
X015125Y118375
X1032277Y1037
X116Y0947
X0137752Y0456998
X0236Y0427277
X132Y0665
X1497Y0682
X1617Y0685
X1523Y07125
X1416Y0722
X1917772Y0667
X2031223Y0080938
X2174922Y008125
X1947Y0675
X2059Y0093
X2071Y-001
X2239077Y008125
X2215078Y-0017
X1980381Y0652377
X1934922Y008125
X2191076Y008125
X1927076Y008125
X1500501Y152008
X197Y106792
X1756Y1386
X16925Y15175
X2303077Y0080723
X15725Y1518
X203Y106792
X2167076Y008125
X15965Y1526
X2065Y10725
X2135078Y-0016157
X1628499Y1522
X202Y106792
X2167077Y-0017
X182117Y047483
X1753Y0569
X183Y0528
X12995Y08545
X12175Y08555
X115025Y0165
X11565Y0165
X0661Y0715
X09925Y02925
X130375Y076375
X1364251Y0819249
X1338251Y0819249
X1325249Y0819751
X1284251Y0818751
X1245249Y0821251
X13145Y114625
X111558Y051992
X115092Y051992
X116658Y051992
X06615Y04075
X0595Y02015
X08415Y029
X08415Y034
X0652501Y0472001
X0215Y085
R03Y001
X048008Y022408
X0185951Y1235549
X0944Y1305
X0948Y13085
X0944Y1312
X04965Y04
X0485Y04
X04085Y0341
X04255Y0341
X0389Y0312
X04055Y03115
X0329Y0267
X03405Y0267
X03315Y0254
X03335Y0223
X0336Y02005
X0335Y0184
X0339Y01595
X03415Y01745
X03665Y0151
X0364Y0165
X0428Y01585
X04125Y01625
X03995Y01665
X03765Y016
X03895Y0146
X0269Y00685
X0236Y0067
X0269Y0086
X0236Y00845
X0268Y014
X0268Y0158
X0236Y0139
X0236Y0157
X0269Y02835
X0269Y03005
X0236Y02815
X0236Y0299
X0269Y04225
X0269Y04415
X0236Y04215
X0236Y04395
X0105199Y0503998
X01185Y0504
X0146999Y045
X0134999Y045
X0087Y045
X0075Y045
X0105199Y0373998
X0117199Y0373998
X0146999Y032
X0134999Y032
X0087Y032
X0075Y032
X0105199Y0243998
X0117199Y0243998
X0146999Y019
X0134999Y019
X0087Y019
X0075Y019
X0105199Y0113998
X0117199Y0113998
X0146999Y006
X0134999Y006
X0087Y006
X0075Y006
X036858Y025908
X10295Y10415
X10385Y1045
X02525Y10975
X0215Y1093
X00555Y1167
X00515Y11895
X0012Y11475
X0012Y11705
X0149Y1132
X0149Y11585
X0155Y11455
X0121Y1137
X0155Y1193
X0155Y118
X0121Y11435
X0122Y116
X0115Y118
X0122Y119
X1379Y0715
X1305Y0707
X1447Y0715
X14245Y0549
X1577002Y0651498
X1588502Y0763
X1571249Y0750749
X1571249Y0730249
X1571249Y0723251
X156925Y068975
X1569Y0671
X1571Y0652
X1035502Y1072498
X1265Y0165
X122125Y0165
X125875Y0165
X1215Y0165
X11175Y0165
X107375Y0165
X10675Y0165
X1115Y007
X106875Y007
X1075Y007
X124675Y040925
X1266Y05085
X112125Y100775
X1231Y12025
X0235Y11535
X02405Y11615
X0235Y11615
X02405Y11535
X02225Y10625
X1061Y1163
X1061435Y1047565
X11365Y05075
X0378Y1177
X0387Y1177
X0387Y1188
X0378Y1188
X03825Y11825
X0761258Y0936742
X0611501Y0282501
X0792Y0943
X14795Y0399
X13415Y0178
X12225Y007
X12625Y007
X125625Y007
X121625Y007
X111125Y0165
X110875Y007
X22205Y07325
X099Y11375
X095908Y115758
X06945Y06185
X097Y1024
X1349Y11115
R08Y-001
X1349Y10115
X1349Y10015
X0718806Y0954861
X07275Y0978
X07725Y09525
X0752Y0944
X0718499Y0947501
X0754Y09225
X0737501Y0937501
X1292749Y0463251
X1293251Y0446251
X140825Y034625
X140775Y035625
X1470998Y0328998
X140225Y031875
X1440998Y0328998
X1402Y0336
X13555Y03275
X1380498Y0329
X14475Y02875
X14745Y0289
X14175Y02875
R02X-003
X12415Y0455
X12145Y04275
X0576Y10385
X0575Y10275
X1185Y04975
X11805Y0492
X11805Y0503
X11895Y0503
X11895Y0492
X1515749Y0739251
X15225Y07225
X1393Y0699
X139292Y073008
X1393Y0738
X1379Y0707
X1501Y0691
X1523Y0672
X1524Y0665
X1523Y0655
X139308Y069008
X1394Y0655
X1394Y0669
X1379Y0655
X138Y0669
X1379Y0698
X138Y0682
X1313499Y06995
X1321Y0657
X1290999Y0675001
X1523Y0645
R03Y-001
X14605Y06135
X1394Y0615
R03Y001
X1384Y0625
X138Y0635
X138Y0645
X132Y0629
X132Y0618
X1319963Y0646963
X1321Y0609737
X1374Y0608
X1395Y057
X1529Y05545
X1514Y0552
X1499658Y0555658
X1475Y0551
X14595Y0532498
X1355Y0549
X13725Y0549
X1335577Y054911
X13175Y0549
X13155Y0540499
X047625Y025375
X12805Y0585
X1269Y0584
X1044435Y1003565
X1148Y1024
X1076Y1199
X101Y1277
X1012498Y1260502
X0792Y124258
X0792Y125242
X04Y1241
X01705Y12445
X01745Y12505
X0845Y123042
X0825Y123042
X0825Y120942
X0845Y120942
X0835Y121942
X026992Y121008
X02025Y12185
X029Y11525
X029Y11725
X054608Y110492
X052Y1104
X1026Y1072498
X056242Y109842
X050258Y106858
X0507Y11
X05475Y10625
R02X-0015
X05475Y10925
R02X-0015
X05475Y10775
R02X-0015
X0481994Y1087994
X04345Y10625
X04345Y10925
X0328275Y1077025
X0301725Y1057975
X008242Y108242
X0328275Y1047025
X0328275Y1017025
X0301725Y1027975
X1169Y0995
X1154Y0995
X049292Y098492
X0328275Y0987025
X0301725Y0967975
X0301725Y0997975
X1225Y0922
X1195Y0922
X116Y0922
X115Y0922
X113Y0922
X0191Y09
X0269918Y0838668
X23505Y07925
X22705Y07925
X0318Y0837
R02Y-0012
X0342Y0837
X033Y0837
X0342Y0825
X033Y0825
X0342Y0813
X033Y0813
X0262001Y0780001
X0262501Y0792501
X0262Y0805
X03675Y0756002
X0392499Y0756002
X0379999Y0756002
X03175Y0756002
X033Y0756002
X0354998Y0756002
X0304998Y0756002
X0292499Y0756002
X080492Y068633
X0342499Y0726002
X0354998Y0726002
X0790628Y0651372
X076007Y0646
X0689Y0644
X0662Y0646
X18925Y05915
X191492Y059192
X19025Y05915
X083375Y061625
X0833425Y0605925
X0795499Y0592499
X0599075Y0607825
X059875Y05975
X1834Y0577
X1834Y0588
X1846Y0588
X1846Y0577
X1818001Y0590001
X0882681Y0561431
X0793648Y0549
X0705Y0572
X0693Y0572
X0705Y056
X0693Y056
X0705Y0548
X0693Y0548
X0717Y0572
R02Y-0012
X06435Y05515
X0599075Y0582825
X059875Y05725
X0608071Y0559929
X191Y0536
X18825Y05285
X186Y0524
X1863499Y05127
X0642Y052
X062686Y0503
X0592069Y0515
X1895Y049
X192262Y048838
X0718672Y0492578
X0702578Y0492578
X0599075Y0495325
X059875Y0485
X1935039Y0426961
X1793Y0411
X177Y0411
X0752769Y044875
X0747499Y044875
X071027Y044875
X0705Y044875
X1935039Y0374039
X09625Y03875
X09725Y03875
X09525Y03875
X07315Y0394
X0694999Y0399999
X0707498Y0400502
X0965Y03335
X0971Y03275
R02X-0006
X0965Y03215
X0905Y0315
X0378498Y0321502
X0346499Y0347741
X0704429Y0304082
R03X-0014
X0704429Y0290082
R03X-0014
X0704429Y0346082
R03X-0014
X0704429Y0332082
R03X-0014
X0704429Y0318082
R03X-0014
X0718429Y0304082
X0718429Y0290082
X0718429Y0346082
R02Y-0014
X0611Y0270002
X052625Y0275002
X04525Y030875
X0475Y030875
X048008Y028092
X04275Y031125
X038542Y030258
X0365Y030875
X0377499Y0308749
X0352498Y0308748
X0339999Y0308749
X030738Y0269
X1771Y0235
X1794Y0235
X0599998Y0275998
X0587499Y0276
X0574999Y0275999
X05625Y02755
X0722499Y0240499
X07Y024
X0684999Y0240001
X069742Y022958
X064992Y025892
X0680079Y0229
X06105Y02575
X0526249Y0260001
X030992Y023669
X030992Y0219
X0735419Y0208081
X073542Y021458
X073542Y020158
X0690501Y0207501
X06865Y02
X064542Y020158
X064542Y021458
X0645419Y0208081
X0477578Y0201328
X0477578Y018375
X0395Y02225
X038Y02225
X0395Y02075
X038Y02075
X0395Y02375
X038Y02375
X041Y02225
X041Y02075
X041Y02375
X0304Y0200001
X0303Y0180001
X12975Y01625
X131Y013375
X11655Y01275
X1018Y01275
X0963003Y0170503
X0988252Y0129502
X0441Y013742
X0425999Y013742
X04125Y01305
X0371Y013742
X0307Y0156
X1295Y01175
X123Y01275
X122Y01275
X123Y01175
X122Y01175
X123Y01075
X122Y01075
X124Y01275
R02Y-001
X1165Y00875
X11475Y01175
X10825Y01275
X10725Y01275
X10825Y01175
X10725Y01175
X10825Y01075
X10725Y01075
X10925Y01275
R02Y-001
X10175Y00875
X1165Y00775
X10175Y00775
X09475Y002
X09225Y002
X0458498Y0015
X0446498Y0015
X0446498Y003
X0458498Y003
X0452498Y0022502
X03835Y0014998
X03715Y0014998
X03715Y0029998
X03835Y0029998
X03775Y00225
X03085Y0014998
X02965Y0014998
X02965Y0029998
X03085Y0029998
X03025Y00225
X02335Y0014998
X02215Y0014998
X02215Y0029998
X02335Y0029998
X02275Y00225
X1492Y0438
X1514Y0434
X137375Y151975
X2007077Y-0016637
X13475Y1476
X2029Y0714
X1564499Y1523
X1935Y10725
X2279Y-0017
X15165Y1518
X1955Y10725
X2303Y-0016
X2024Y0655154
X1749Y138
X1644501Y1526079
X2414959Y0386039
X2119076Y008125
X16525Y1518
X2407961Y039404
X1995Y10725
X1576Y1394
X1505Y1394
X15085Y1518
X2414959Y0242039
X2047076Y008125
X1436501Y152008
X1445Y1402
X1484Y1402
X1925Y10725
X2119077Y-0016156
X208Y106792
X168Y1387
X16125Y1387
X16125Y1522
X2407961Y025004
X2087Y0696
X2103078Y-0016156
X1548499Y1526
X206Y106792
X2414959Y0322039
X2099Y0667
X1868Y0767
X14285Y151625
X187Y106792
X2414959Y0466039
X2073Y0093
X2086999Y-0008999
X1947Y0682
X1404499Y152008
X1845Y10725
X2414959Y034604
X2063077Y008125
X137125Y1476
X2414959Y0426039
X1919077Y-0016155
X16765Y1526079
X2414959Y0402039
X1983076Y008125
X158Y1522
X1965Y10725
X2414959Y0482041
X1999077Y0080723
X1420501Y152008
X186Y106792
X2414959Y0202039
X1943077Y-0016157
X14685Y151975
X192Y106792
X2279077Y008125
X14525Y152008
X188Y106792
X2407961Y021004
X2143077Y008125
X15565Y1518
X2Y106792
X2414959Y0442039
X2055078Y-0016157
X2414959Y0362039
X1918Y0659154
X2023377Y0080938
X132375Y1476
X2414959Y030604
X1476501Y151625
X1498Y1402
X1537Y1402
X1945Y10725
X2407961Y041004
X2255077Y008125
X1685001Y15175
X1983Y071
X2182Y0087
X2199Y-0008
X1708499Y1517501
X2414959Y0162039
X2151077Y-0016637
X1460501Y151633
X19Y106792
X2407961Y049004
X2255078Y-0017
X1971363Y0667377
X134125Y151975
X2407961Y037004
X2031078Y-0016637
X1604499Y1518
X201Y106792
X2407961Y053004
X1953Y0708
X2166Y0088
X2183001Y-0007999
X1620501Y1518
X2075Y10725
X2414959Y0522041
X1991078Y-0016157
X14125Y151633
X1855Y10725
X2414959Y0506039
X2231Y-0017
X1524499Y151625
X199Y106792
X1660501Y1526079
X2414959Y018604
X15325Y1516
X2005Y10725
X240796Y051404
X2407961Y029004
X2094Y0676
X2407961Y035404
X2407961Y045004
X2407961Y017004
X2407961Y043404
X2407961Y033004
X2414959Y0546039
X217Y0776
X2414959Y022604
X2075Y069
X2414959Y0282039
X2407961Y047404
X2414959Y026604
X2008001Y1434001
X2092Y0986
X2332039Y1226039
X2332039Y110604
X2325041Y1298041
X2326Y0986
X2332039Y102604
X2228Y0798
X2325041Y1162039
X2332039Y1082039
X2332039Y114604
X2332039Y1242039
X2234Y0875
X2325041Y1098041
X2325041Y1258041
X2325041Y1178041
X2325041Y1042039
X2235Y0798
X2071999Y1434001
X2332039Y1058041
X2264Y1435
X2325041Y1122039
X196Y1434
X2332039Y1322041
X2178Y0899
X2135999Y1434001
X2325041Y1338041
X1951999Y1441
X20715Y0988
X2332039Y1002039
X22185Y07895
X2168001Y1434001
X2325041Y1138041
X2222Y083
X2248001Y1434001
X2332039Y1202039
X2224Y0859
X2325041Y1018039
X208Y1442
X2325041Y1218041
X2231Y0865
X2184Y1434
X2324Y0962039
X2229Y0775
X2151999Y1434001
X2332039Y1282041
X221Y0885
X1927999Y1434001
X2325041Y106604
X2225Y0812
X212Y1434
X2332039Y1186039
X2024001Y1434001
X2332039Y1266039
X2295999Y1435081
X2244Y1302
X2087Y1302
X2332039Y1306039
X1955Y1408
X2332039Y0978039
X192Y1442
X204Y1434
X2130145Y1002499
X2088001Y1434001
X1991999Y1434001
X1911999Y1434001
X1984001Y1442001
X2056Y1434
X2122Y0996
X2151Y1423
X2016Y1442
X1966Y1428
X209Y1007
X2332039Y0546039
X2288001Y1442079
X2244Y1286
X2087Y1286
X2332039Y022604
X2232001Y1434001
X219Y0924
X2325041Y0538041
X2171Y0768
X2215999Y1434001
X2332039Y0442039
X2048001Y1442001
X2325041Y0418041
X2325041Y0162039
X2332039Y034604
X2116Y0704
X2332039Y0522041
X2332039Y030604
X2325041Y0338041
X2332039Y0202039
X2325041Y0298041
X2325041Y018604
X2325041Y0498041
X2325041Y0378041
X2125Y07
X2325041Y0458041
X2154Y0692
X2325041Y0218039
X2078Y0705
X2408Y0274
X1978Y02175
X08325Y1136
X08015Y06615
X0630071Y0648929
X1215Y0947
X2332039Y0386039
X2257Y0252
X2408Y0234
X1973Y0212
X17315Y07185
X17315Y06145
X114Y0922
X12405Y08945
X2332039Y0178039
X2408Y0194
X1170565Y0904435
X2325041Y026604
X2408Y0154
X12Y08965
X2332039Y0258041
X2093Y0706
X2332039Y0402039
X2135Y0702
X2325041Y0362039
X2332039Y0426039
X2147Y0705
X2332039Y0506039
X2173485Y0754076
X2325041Y0322039
X210625Y066275
X2332039Y0466039
X2332039Y0282039
X2093Y0684
X2332039Y0482041
X2168Y0706
X2325041Y0242039
X1591Y-0008
X1528Y0068
X2215999Y1525999
X1358772Y0074
X2264Y1526
X1591Y0073
X18365Y0823
X1559Y0066
X1727462Y0075
X1615Y0081
X2071999Y1525999
X1511Y-0008
X2272001Y1517999
X1624Y0067
X1991999Y1525999
X2097Y0986
X1568Y-0008
X1439707Y-0017293
X2232001Y1525999
X2198Y0924
X1463228Y-0017
X2104Y1526
X1852Y0777603
X2288001Y1525999
X2244Y1294
X2087Y1294
X1655Y-0007
X1984001Y1517999
X1407586Y0075
X2208001Y1517999
X1527Y-0008
X224Y1518
X1398314Y-00175
X2056Y1526
X1439461Y0075
X1911999Y1526079
X1366961Y-00175
X208Y1518
X1519Y-0015
X2016Y1518
X1623Y-0015
X204Y1526
X169569Y0075
X1944001Y1525999
X2089Y102
X1495Y0075
X2168001Y1525999
X2177Y0946
X1414679Y-0017907
X2151999Y1525999
X1735Y-0015
X2135999Y1525999
X147125Y0075
X1951999Y1517999
X1384Y0074
X2224Y1518
X2183Y0924
X1719777Y-0015
X2255999Y1517999
X2209Y0917
X186088Y0835
X1927999Y1526079
X151875Y0075
X1976Y1526
X2083Y0999
X1352311Y-00175
X2248001Y1525999
X171969Y0075
X2008001Y1525999
X2099515Y0995
X1711538Y-0015
X2088001Y1525999
X1647Y-0015
X22Y1526
X2183Y0935
X1585Y1409
X2015Y10725
X1367Y0074
X196Y1526
X14285Y1442
X1885Y10725
X1615Y-0008
X2048001Y1517999
X1632Y14105
X2055Y10725
X18495Y0807
X2295999Y1518
X2244Y1278
X2087Y1278
X2058Y1015
X1404499Y1434001
X185Y106792
X1559Y-0015
X2024001Y1525999
X2107Y0986
X1716Y143
X18435Y081
X212Y1526
X165Y1395
X205Y106792
X170331Y-0015
X2184Y1526
X16765Y1434001
X1607Y0067
X192Y1518
X2063Y0985
X15325Y1434001
X193Y106792
X2332039Y1346039
X1447689Y0075
X14525Y1434001
X189Y106792
X147875Y0068
X1741Y1422
X1631Y-0007
X156Y1402
X195Y106792
X1576Y-0015
X1628499Y1434001
X204Y106792
X15435Y00755
X1542Y142273
X196Y106792
X1742846Y-0015
X2035Y10725
X1643Y1415
X1568Y0075
X1602Y142
X2045Y10725
X1836Y08135
X1709Y1414
X151125Y0068
X133375Y1476
X1641Y0076
X1476501Y1442
X191Y106792
X2407961Y133004
X2172Y0899
X1711462Y0075
X136375Y151975
X2407961Y127404
X1392228Y0074
X1420501Y1434001
X1865Y10725
X2407961Y121004
X2231Y0859
X1608Y-0015
X138125Y1476
X2408Y0962
X2223Y0775
X1375189Y-00175
X1436501Y1434001
X1875Y10725
X2414959Y1306039
X1687462Y0075
X1460501Y1442
X1895Y10725
X2408Y1066
X1455Y-0017
X1564499Y1434001
X1985Y10725
X2414959Y1322041
X2185Y0899
X146375Y0068
X1484499Y1434001
X194Y106792
X2407961Y117004
X1727623Y-0015
X133125Y151975
X2414959Y114604
X1360539Y-00175
X1666Y1415
X2085Y10725
X2408Y0986
X173569Y0075
X2414959Y1346039
X1415814Y0075
X15965Y1434001
X2025Y10725
X2408Y1074
X1390086Y-00175
X1356501Y1476
X2408Y1082
X2218Y0808
X1495Y-0015
X14685Y1434001
X1905Y10725
X240796Y131404
X1479Y-0008
X1708499Y1437501
X2387Y07145
X2408Y0994
X1422907Y-0017907
X16525Y1442
X2408Y1114
X13155Y0404501
X1544Y-0015
X198Y106792
X1571Y1417
X2407961Y119404
X1431479Y-0017293
X1975Y10725
X1548Y1415
X2414959Y1266039
X1575Y0066
X1666Y1402
X207Y106792
X2375Y07065
X2408Y0954
X2262924Y-0017
X1971363Y0675223
X14125Y1442
X184Y106792
X2408Y1002039
X2228Y079
X2286923Y008125
X2407961Y123404
X2062924Y-0016157
X2407961Y125004
X2226Y0875
X2126922Y008125
X2408Y1042
X2218Y0798
X2286846Y-0017
X2407961Y109004
X1998924Y-0016157
X2407961Y101004
X2408Y1026
X2407961Y113004
X2228Y0831
X2262923Y008125
X2407961Y129004
X2205Y0893
X2246923Y008125
X2414959Y1242039
X2150923Y008125
X2414959Y1282041
X2216Y0885
X2310846Y-0016
X2024Y0663
X2414959Y1162039
X2174923Y-0017
X2407961Y115404
X2238846Y-0017
X2414959Y1226039
X2158923Y-0016637
X2414959Y1122039
X2006923Y0080723
X2407961Y105004
X2407961Y097004
X2212Y0775
X2054922Y008125
X22Y1434
X2414959Y1186039
X2126923Y-0016156
X2414959Y1202039
X2142924Y-0016157
X2392Y0719
X2408Y1034
X2014923Y-0016637
X24085Y1106
X2191Y082
X2310923Y0080723
X1953Y0697
X2070923Y008125
X2198922Y008125
X1973Y0715
X1484499Y152
X1915Y10725
X2038924Y-0016637
X2110924Y-0016156
X1950923Y-0016157
X1990922Y008125
X1907Y0712
X1926923Y-0016155
X2222924Y-0017
X1980381Y0660223
X1291001Y0699
X1338999Y0698999
X1291002Y0722999
X1347Y0691
X1330998Y0707
X1291002Y0730998
X1291001Y0739
X1330999Y0699
X1330998Y0722999
X1330998Y0635002
X1291002Y0635002
X1330999Y0611
X1291002Y0667001
X1291001Y0651
X1338999Y0611001
X1338999Y0651001
X1330998Y0627001
X1283001Y0627001
X1283001Y0619002
X1283001Y0667001
X1330998Y0659002
X1291002Y0627001
X1338999Y0659002
X1330998Y0643
X1291002Y0643
X1330998Y0667001
X1283001Y0651001
X1338999Y0627001
X1346998Y0730998
X1346998Y0714998
X1275002Y0730998
X1275002Y0714998
X1338999Y0690998
X1338999Y0667001
X1283001Y0690998
X1275002Y0667001
X1291002Y0659002
X1346998Y0651001
X1338999Y0635002
X1346998Y0627001
X1338999Y0619002
X1346998Y0611001
X1275002Y0643
X1275002Y0635002
X1275002Y0627001
X1283001Y0611001
X1275002Y0690998
X1338999Y0738999
X1283001Y0698999
X1338999Y0714998
X1283001Y0722999
X1283001Y0714998
X1291002Y0690998
X1338999Y0730998
X1283001Y0738999
X1330998Y0730998
X1330999Y0739
X1330998Y0714998
X1330998Y0682999
X1338999Y0722999
X1291002Y0714998
X1330998Y0690998
X1283001Y0730998
X1291002Y0682999
X1338999Y0707
X1283001Y0707
X1346998Y0667001
X1346998Y0738999
X1346998Y0722999
X1346998Y0707
X1275002Y0738999
X1275002Y0722999
X1275002Y0707
X1338999Y0682999
X1346998Y0659002
X1275002Y0659002
X1283001Y0659002
X1338999Y0643
X1346998Y0643
X1346998Y0635002
X1346998Y0619002
X1330998Y0619002
X1275002Y0651001
X1283001Y0643
X1283001Y0635002
X1275002Y0619002
X1275002Y0611001
X1437001Y0699
X1484999Y0698999
X1437002Y0722999
X1492998Y0690998
X1476998Y0707
X1437002Y0730998
X1437001Y0739
X1476999Y0699
X1476998Y0722999
X1484999Y0651001
X1466Y0641
X1476998Y0635002
X1484999Y0611001
X1466227Y066316
X1476999Y0611
X1437001Y0611
X1437002Y0635002
X1484999Y0659002
X1484999Y0627001
X1437002Y0667001
X1429001Y0627001
X1437002Y0627001
X1429001Y0619002
X1429001Y0651001
X1476998Y0667001
X1437002Y0643
X1429001Y0667001
X1476998Y0627001
X1492998Y0714998
X1492998Y0730998
X1421002Y0730998
X1421002Y0714998
X1484999Y0690998
X1484999Y0667001
X1429001Y0690998
X1421002Y0667001
X1437002Y0659002
X1492998Y0651001
X1492998Y0627001
X1492998Y0611001
X1484999Y0635002
X1484999Y0619002
X1421502Y0643
X1421502Y0635002
X1421002Y0627001
X1429001Y0611501
X1429001Y0698999
X1421002Y0690998
X1437001Y0651
X1484999Y0738999
X1484999Y0714998
X1429001Y0722999
X1429001Y0714998
X1437002Y0690998
X1484999Y0730998
X1429001Y0738999
X1476998Y0730998
X1476999Y0739
X1476998Y0714998
X1476998Y0682999
X1484999Y0722999
X1437002Y0714998
X1476998Y0690998
X1429001Y0730998
X1437002Y0682999
X1484999Y0707
X1492998Y0667001
X1429001Y0707
X1492998Y0738999
X1492998Y0722999
X1492998Y0707
X1421002Y0738999
X1421002Y0722999
X1421002Y0707
X1492998Y0659002
X1484999Y0682999
X1429001Y0682999
X1429001Y0659002
X1421002Y0659002
X1492998Y0643
X1492998Y0635002
X1492998Y0619002
X1484999Y0643
X1476998Y0619002
X1429001Y0643
X1421002Y0651001
X1429001Y0635002
X1421502Y0619002
X1421002Y0611501
X1307502Y0460499
X1323501Y04845
X13155Y04845
X1331502Y0428501
X1297Y0492
X1299501Y04845
X1331502Y0476499
X1331502Y0468498
X1323501Y0500499
X1339501Y0460499
X1323501Y0468498
X13155Y0444501
X1323501Y0492498
X1339501Y0444501
X1307502Y0492498
X1331502Y0460499
X1363501Y05245
X1451499Y04845
X1411499Y0500499
X1443498Y0476499
X1395499Y0508498
X1339501Y0428501
X1443498Y04845
X1411499Y0508498
X1395499Y0500499
X12995Y04765
X1395499Y0492498
X1307502Y0428501
X1347502Y0508498
X1347502Y0516499
X14195Y0516499
X1371502Y0516499
X13155Y0436502
X1339501Y0436502
X1331502Y0436502
X13555Y05245
X1443498Y0436502
X1347502Y0532498
X1379501Y0532498
X1443498Y0516499
X1435499Y0516499
X13155Y05245
X1379501Y05245
X1371502Y05245
X1331502Y05245
X1427498Y0436502
X1323501Y0532498
X1435499Y0476499
X1363501Y0532498
X13555Y0532498
X1475499Y0444501
X1467498Y0444501
X1443498Y0444501
X1451499Y0444501
X1339501Y0532498
X1435499Y0444501
X1451499Y0460499
X1323501Y05245
X14595Y0460499
X1435499Y0460499
X1435499Y0468498
X1339501Y0492498
X14595Y0468498
X1443498Y0468498
X1451499Y0468498
X1475499Y0500499
X13155Y0516499
X1299501Y0460499
X1451499Y0492498
X13155Y0476499
X1435499Y0492498
X1307502Y0500499
X1443498Y0492498
X1331502Y0500499
X1331502Y04845
X1435499Y0500499
X1347502Y0444501
X1451499Y0500499
X14195Y0500499
X14595Y0500499
X1347502Y0492498
X1451499Y0508498
X1443498Y0508498
X1435499Y0508498
X1307502Y05245
X13155Y0500499
X14195Y0444501
X1427498Y04845
X1427498Y0476499
X1427498Y0444501
X1331502Y0444501
X1307502Y0436502
X13235Y04765
X1299501Y0468498
X14115Y03885
X1403498Y0412502
X1371502Y0404501
X1347502Y0396502
X1339501Y04205
X13235Y03885
X13155Y0412502
X1379501Y03805
X13555Y0372502
X1331502Y0364501
X1299501Y03805
X14195Y0364501
X1467498Y0492498
X1467498Y0500499
X1467498Y04845
X13555Y0436502
X13555Y0444501
X1347502Y0428501
X1427498Y04205
X1323501Y0404501
X1427498Y0428501
X1347502Y0404501
X1307502Y0412502
X13555Y0428501
X1323501Y0412502
X1347502Y0412502
X1427498Y0516499
X1435499Y0412502
X1347502Y04205
X14595Y0492498
X14515Y05165
X1435499Y04845
X1427498Y0508498
X1478Y0520501
X14115Y04765
X1395499Y0476499
X1371502Y0476499
X1443498Y0460499
X1427498Y0460499
X14195Y0468498
X1411499Y0460499
X1403498Y0468498
X1379501Y0468498
X1323501Y0508498
X1331502Y0508498
X14195Y0396502
X14195Y0388501
X1475499Y0404501
X1467498Y04205
X14595Y0412502
X1467498Y0388501
X14755Y03645
X14195Y03805
X1339501Y05245
X1427498Y0492498
X1323501Y0444501
X1307502Y0476499
X1339501Y04845
X13555Y0404501
X13155Y03805
X1323501Y03805
X14195Y04845
X1403498Y04845
X1379501Y04845
X1363501Y04845
X13555Y0476499
X1347502Y04845
X14195Y0428501
X1411499Y0436502
X1403498Y0428501
X1395499Y0436502
X1379501Y0428501
X1371502Y0436502
X1363501Y0468498
X1363501Y0444501
X13635Y04285
X13555Y0460499
X1299501Y0404501
X1403498Y0500499
X1371502Y0492498
X13635Y05165
X1339501Y0508498
X1331661Y0532339
X1299501Y0412502
X1395499Y0460499
X1307502Y04205
X13155Y04205
X1307502Y0468498
X1323501Y04205
X1379501Y0444501
X1371502Y0444501
X1331502Y04205
X1347502Y0468498
X1371502Y0460499
X1331502Y0412502
X1339501Y0412502
X14595Y0508498
X1339501Y0404501
X14595Y04845
X12835Y05375
X14595Y0476499
X1331502Y0516499
X1339501Y0500499
X14515Y03885
X1355501Y04685
X1475499Y0412502
X1379501Y0516499
X14515Y04285
X1451499Y0396502
X1435499Y0404501
X1435499Y04205
X1435499Y0388501
X1371502Y0500499
X1467498Y03805
X1379501Y0500499
X1403498Y0492498
X1475499Y03805
X1403498Y0508498
X1451499Y04205
X1363501Y0500499
X1363501Y0508498
X1467498Y0412502
X13555Y0508498
X14595Y0388501
X1339501Y0516499
X14595Y04205
X14195Y0508498
X1371502Y0508498
X13555Y0516499
X1363501Y0492498
X1403498Y0516499
X1379501Y0492498
X1411499Y0492498
X13555Y0492498
X147975Y042325
X1467498Y0404501
X1443498Y04205
X1443498Y0404501
X14755Y03885
X14595Y0396502
X1443498Y0388501
X1427498Y0404501
X1427498Y0412502
X14195Y0404501
X1427498Y0396502
X1427498Y0388501
X1395499Y0396502
X1379501Y04205
X13555Y0412502
X13635Y03885
X1331502Y0404501
X1307502Y0396502
X1299501Y04205
X1485Y03785
X14595Y03805
X1443498Y03805
X1467498Y0364501
X14595Y0364501
X14515Y03645
X1443498Y0372502
X1443498Y0364501
X1435499Y03805
X1427498Y03805
X1403498Y0372502
X1371502Y0364501
X1339501Y03805
X13155Y0372502
X1435499Y05245
X1371502Y0532498
X1347502Y05245
X1467498Y0508498
X1475499Y04845
X14515Y04765
X1443498Y0500499
X14195Y0492498
X1411499Y04845
X14195Y0476499
X1403498Y0476499
X14115Y05165
X1379501Y0476499
X13635Y04765
X1395499Y04845
X1371502Y04845
X13555Y04845
X13555Y0500499
X1379501Y0508498
X1331502Y0492498
X1307502Y04845
X13235Y05165
X12925Y0504
X1475499Y0436502
X14595Y0444501
X14595Y0436502
X1467498Y0436502
X14595Y0428501
X1451499Y0436502
X1427498Y0468498
X14195Y0460499
X1435499Y0436502
X1411499Y0444501
X14195Y0436502
X14115Y04285
X1403498Y0436502
X1411499Y0468498
X1395499Y0428501
X1379501Y0436502
X1395499Y0468498
X1363501Y0460499
X1371502Y0468498
X1371502Y0428501
X1363501Y0436502
X1347502Y0460499
X13235Y04285
X1347502Y0436502
X13155Y0460499
X1307502Y0388501
X1323501Y0396502
X1307502Y03805
X13155Y0388501
X13155Y0396502
X1411499Y0372502
X1371502Y03805
X1331502Y03805
X1371502Y0396502
X1363501Y0396502
X1371502Y0412502
X1403498Y0388501
X14195Y0412502
X1395499Y0372502
X1411499Y0396502
X1339501Y0388501
X14195Y0372502
X1307502Y0364501
X1347502Y0372502
X1339501Y0364501
X1411499Y0404501
X1395499Y0388501
X1379501Y0364501
X13155Y0364501
X1363501Y0372502
X1347502Y0364501
X1379501Y0404501
X1323501Y0372502
X1403498Y0404501
X1331502Y0388501
X1411499Y03805
X1395499Y03805
X1363501Y0412502
X1347502Y03805
X1371502Y0372502
X1403498Y0396502
X1395499Y0364501
X1363501Y0404501
X1363501Y03805
X1379501Y0372502
X1411499Y0412502
X13555Y0364501
X14115Y03645
X1339501Y0372502
X13635Y03645
X1331502Y0372502
X1347502Y0388501
X1307502Y0404501
X1307502Y0372502
X1403498Y03805
X1371502Y04205
X1339501Y0396502
X13235Y03645
X1395499Y0404501
X1371502Y0388501
X1331502Y0396502
X13555Y0396502
T03
X20225Y0834998
X20225Y0845
X2032502Y0865
X2042502Y0865
X19325Y0905
X19325Y0895442
X19525Y0885
X19625Y0915
X19125Y0875
X19525Y0915
X19125Y0865
X19025Y0915
X19125Y0885
X19225Y0885
X19225Y0895
X19725Y0895
X19325Y0875
X19025Y0935
X19425Y0895
X19125Y0915
X19525Y0855
X19325Y0855
X19525Y0905
X19625Y0905
X19025Y0865
X19425Y0915
X19025Y0885
X19425Y0875
X19225Y0855
X19725Y0885
X19525Y0895
X19425Y0925
X19025Y0905
X19125Y0855
X19425Y0865
X19625Y0885
X19125Y0935
X19325Y0925
X19225Y0875
X19325Y0915
X19725Y0905
X19225Y0935
X20125Y0965
X2102502Y0824998
X20125Y0955
X20125Y0935
X20225Y0925
X20125Y0925
X20025Y0965
R03Y-001
X19925Y0975
X2132502Y0855
X19925Y0965
X19925Y0945
X19925Y0935
X19925Y0925
X19825Y0975
R03Y-001
X19825Y0925
X19725Y0955
R03Y-001
X2042502Y0744998
X19625Y0955
X19625Y0935
X19625Y0925
X19525Y0955
R02Y-001
X20225Y0744998
X19425Y0965
X19425Y0945
X19425Y0935
X1932Y0984
X19325Y0955
X2132502Y0824998
X2132502Y0834998
X19625Y0865
X19125Y0905
X19625Y0875
X19225Y0905
X2042502Y0754998
X2042502Y0764998
X20125Y0764998
X20125Y0754998
X20225Y0764998
X2062502Y0754998
X19325Y0945
X2052502Y0764998
X19225Y0975
X19225Y0955
X20225Y0935
X19225Y0945
X2052502Y0754998
X19125Y0965
X19125Y0955
X19025Y0955
X19025Y0945
X20225Y0865
X2082502Y0895
X2082502Y0915
X2072502Y0885
X2052502Y0885
X2062502Y0895
X2042502Y0895
X2072502Y0905
X2052502Y0905
X2062502Y0915
X2042502Y0915
X20225Y0885
X20025Y0885
X20125Y0895
X19925Y0895
X20225Y0905
X20025Y0905
X20125Y0915
X19925Y0915
X19825Y0885
X19825Y0905
X2082502Y0855
X2082502Y0875
X2072502Y0834998
X2052502Y0834998
X2063Y08555
X2072502Y0865
X2052502Y0865
X2062502Y0875
X2042502Y0875
X20025Y0834998
X20125Y0855
X19925Y0855
X20025Y0865
X20125Y0875
X19925Y0875
X19825Y0834998
X19725Y0855
X19825Y0865
X19725Y0875
X2082502Y0804998
X2082502Y0824998
X2072502Y0794998
X2052502Y0794998
X2062502Y0804998
X2042502Y0804998
X2072502Y0814998
X2052502Y0814998
X2062502Y0824998
X20225Y0794998
X20025Y0794998
X20125Y0804998
X19925Y0804998
X20225Y0814998
X20025Y0814998
X20125Y0824998
X19925Y0824998
X19825Y0794998
X19725Y0804998
X19825Y0814998
X19725Y0824998
X2082502Y0784998
X2072502Y0774998
X2052502Y0774998
X2062502Y0784998
X2042502Y0784998
X20225Y0774998
X20025Y0774998
X20125Y0784998
X19925Y0784998
X19825Y0774998
X19725Y0784998
X2122502Y0784998
X2132502Y0965
X2112502Y0925
X2102502Y0955
X2042502Y0935
X2072502Y0945
X20025Y0925
X19925Y0955
X19625Y0945
X2122502Y0895
X2132502Y0865
X2102502Y0855
X2112502Y0814998
X19425Y0794998
X2132502Y0754998
X2082502Y0754998
X2052502Y0744998
X20025Y0764998
X19525Y0764998
X2092502Y0724998
X20125Y0734998
X19625Y0734998
X19325Y0824998
X2092502Y0885
X19425Y0905
X2092502Y0834998
X2092502Y0865
X19625Y0834998
X19525Y0875
X2092502Y0794998
X2092502Y0814998
X20225Y0945
X18915Y0915826
X19225Y0925
X19325Y0865
X19425Y0885
X19525Y0865
X19225Y0774998
X19625Y0744998
X19125Y0744998
X20025Y0754998
X19225Y0784998
X19725Y0764998
X19325Y0794998
X19125Y0714998
X2052502Y0925
X2042751Y0734749
X19725Y0744998
X19525Y0734998
X19825Y0764998
X2142502Y0935
X2122502Y0945
X2152502Y0955
X2092502Y0935
X2082502Y0965
X20125Y0945
X19525Y0925
X19825Y0935
X19325Y0935
X19125Y0945
X2142502Y0885
X2152502Y0905
X2132502Y0915
X2102502Y0905
X19625Y0895
X19325Y0885
X19225Y0915
X2112502Y0875
X19225Y0865
X2132502Y0804998
X2142502Y0824998
X19525Y0814998
X19225Y0804998
X2152502Y0744998
X2142502Y0774998
X2102502Y0744998
X2112502Y0764998
X19925Y0744998
X19425Y0744998
X19725Y0754998
X19225Y0754998
X19325Y0774998
X2142502Y0724998
X2122502Y0734998
X2072502Y0734998
X19325Y0724998
X19125Y0734998
X2162502Y0975
R02X-005
X20225Y0965
X20025Y0975
X19725Y0965
X1954Y0982
X19225Y0965
X19025Y0975
X2162502Y0925
X2052502Y0955
X2062502Y0925
X19425Y0955
X18975Y092
X2162502Y0875
X2092502Y0875
X2082502Y0885
X2082502Y0905
X2072502Y0915
X2052502Y0915
X2072502Y0875
X2052502Y0875
X2062502Y0885
X2042502Y0885
X2072502Y0895
X2052502Y0895
X2062502Y0905
X2042502Y0905
X20225Y0915
X20025Y0915
X20225Y0875
X20025Y0875
X20125Y0885
X19925Y0885
X20225Y0895
X20025Y0895
X20125Y0905
X19925Y0905
X19825Y0915
X19725Y0915
X19825Y0875
X19825Y0895
X19025Y0875
X19125Y0895
X2152502Y0855
X2082502Y0865
X2092502Y0824998
X2122502Y0834998
X2082502Y0834998
X2092502Y0855
X2062502Y0865
X2072502Y0824998
X2052502Y0824998
X2062502Y0834998
X2072502Y0855
X2052502Y0855
X20125Y0865
X19925Y0865
X20025Y0824998
X20125Y0834998
X19925Y0834998
X20025Y0855
X19725Y0865
X19825Y0824998
X19725Y0834998
X19825Y0855
X19425Y0855
X19125Y0834998
X2162502Y0814998
X2152502Y0794998
X2082502Y0814998
X2092502Y0784998
X2102502Y0794998
X2082502Y0794998
X2092502Y0804998
X2062502Y0814998
X2042502Y0814998
X2072502Y0784998
X2052502Y0784998
X2062502Y0794998
X2042502Y0794998
X2072502Y0804998
X2052502Y0804998
X20125Y0814998
X19925Y0814998
X20225Y0784998
X20025Y0784998
X20125Y0794998
X19925Y0794998
X20225Y0804998
X20025Y0804998
X19725Y0814998
X19825Y0784998
X19625Y0784998
X19725Y0794998
X19825Y0804998
X19025Y0814998
X19125Y0784998
X2162502Y0764998
X2092502Y0774998
X2082502Y0774998
X2062502Y0764998
X2062502Y0774998
X2042502Y0774998
X20125Y0774998
X19925Y0774998
X20225Y0754998
X19025Y0764998
X2162502Y0714998
R02X-005
X2042502Y0724998
X20025Y0714998
X19525Y0714998
X19825Y0724998
X19025Y0714998
X19125Y0764998
X19925Y0734998
X20125Y0724998
X20225Y0955
X2132502Y0714998
X19425Y0714998
X19125Y0774998
X2082502Y0724998
X19425Y0754998
X19525Y0754998
X2082502Y0744998
X19325Y0744998
X2102502Y0754998
X19525Y0784998
X2162502Y0724998
X19225Y0724998
X2112502Y0744998
X19125Y0754998
X2142502Y0744998
X19625Y0794998
X2132502Y0734998
X19325Y0764998
X2162502Y0744998
X19625Y0774998
X2072502Y0714998
X19425Y0784998
X19925Y0764998
X2072502Y0744998
X19725Y0724998
X2152502Y0714998
X19025Y0734998
X2122502Y0714998
X2102502Y0724998
X19025Y0784998
X2142502Y0714998
X20125Y0744998
X2052502Y0945
X1982486Y0744984
X2052502Y0714998
X19525Y0724998
X2122502Y076557
X2122502Y0744998
X19225Y0794998
X2122502Y0774998
X19125Y0724998
X2102502Y0774998
X19425Y0774998
X2142502Y0764998
X20025Y0724998
X2042502Y0945
X2062502Y0734998
X2092502Y0764998
X2152502Y0734998
X2052502Y0734998
X2112502Y0724998
X2152502Y0774998
X2072502Y0764998
X2092502Y0744998
X2092502Y0714998
X2092502Y0925
X2132502Y0875
X2122502Y0824998
X2162502Y0895
X2212Y0782
X2102502Y0804998
X2112502Y0855
X2132502Y0814998
X2152502Y0834998
X2122502Y0875
X2152502Y0814998
X2162502Y0885
X2162502Y0855
X2122502Y0804998
X2122502Y0965
X2152502Y0804998
X2112502Y0905
X2162502Y0824998
X2082502Y0955
X2112502Y0895
X2162502Y0955
X2092502Y0895
X2072502Y0925
X2122502Y0794998
X2162502Y0945
X2112502Y0834998
X2152502Y0915
X2122502Y0865
X2142502Y0794998
X2132502Y0975
X2102502Y0865
X2132502Y0935
X2112502Y0784998
X2142502Y0945
X2112502Y0885
X2072502Y0975
X2102502Y0814998
X2152502Y0965
X2152502Y0865
X2102502Y0945
X2132502Y0885
X19425Y0834998
X2142502Y0895
X2072502Y0955
X2142502Y0784998
X2062502Y0945
X2102502Y0925
X2142502Y0975
X2092502Y0955
X2062502Y0965
X2092502Y0975
X2112502Y0935
X2142502Y0955
X2102502Y0975
X2082502Y0935
X2162502Y0774998
X19025Y0834998
X2082502Y0714998
X2112502Y0915
X2132502Y0774998
X2142502Y0925
X2152502Y0724998
X2112502Y0955
X2142502Y0734998
X2052502Y0724998
X2112502Y0754998
X2112502Y0774998
X2102502Y0734998
X2112502Y0734998
X2072502Y0724998
X2102502Y0714998
X2062502Y0744998
X2132502Y076557
X2122502Y0754998
X2152502Y0754998
X2072502Y0754998
X2132502Y0724998
X2062502Y0724998
X2092502Y0734998
X2082502Y0764998
X2132502Y0744998
X2122502Y0724998
X2142502Y0754998
X2152502Y0764998
X2102502Y0764998
X2162502Y0734998
X2092502Y0754998
X2162502Y0754998
X2082502Y0734998
X2152502Y0925
X2122502Y0905
X19225Y0834998
X19425Y0804998
X2122502Y0955
X2132502Y0905
X2092502Y0945
X2122502Y0915
X2152502Y0975
X19725Y0774998
X19325Y0834998
X2092502Y0965
X2132502Y0925
X2142502Y0915
X2122502Y0975
X2062502Y0955
X2132502Y0955
X2102502Y0965
X2112502Y0965
X19125Y0814998
X2072502Y0935
X2122502Y0935
X2152502Y0945
X19425Y0814998
X2132502Y0945
X2082502Y0975
X2102502Y0915
X19625Y0804998
X2092502Y0905
X19525Y0824998
X2072502Y0965
X2082502Y0925
X2162502Y0915
X19125Y0804998
X2092502Y0915
X19325Y0804998
X2142502Y0965
X2122502Y0925
X2082502Y0945
X2112502Y0945
X19625Y0824998
X19025Y0824998
X2102502Y0935
X2052502Y0935
X19525Y0834998
X2162502Y0965
X19325Y0814998
X2152502Y0935
X2042502Y0925
X2062502Y0935
X2142502Y0905
X19425Y0824998
X19225Y0824998
X2042502Y0955
X2102502Y0895
X19225Y0814998
X2112502Y0865
X2102502Y0784998
X2152502Y0895
X19125Y0824998
X2162502Y0804998
X2132502Y0895
X2122502Y0855
X19625Y0814998
X2142502Y0834998
X2152502Y0784998
X19525Y0804998
X20225Y0975
X2162502Y0905
X2122502Y0814998
X2152502Y0885
X2112502Y0794998
X19925Y0754998
X19025Y0724998
X2102502Y0875
X19325Y0714998
X2112502Y0804998
X20125Y0714998
X2142502Y0814998
X19425Y0764998
X2132502Y0794998
X19525Y0774998
X221Y0797
X20225Y0724998
X2102502Y0834998
X20025Y0734998
X2102502Y0885
X20025Y0744998
X2142502Y0875
X19625Y0724998
X2122502Y0885
X2162502Y0834998
X19825Y0754998
X19925Y0724998
X2152502Y0875
X19425Y0724998
X2152502Y0824998
X19625Y0764998
X2142502Y0804998
X19225Y0714998
X2132502Y0784998
X19325Y0754998
X2162502Y0935
X2162502Y0865
X19525Y0744998
X2142502Y0865
X19425Y0734998
X19025Y0754998
X2112502Y0824998
X2032749Y0734749
X19225Y0734998
X19025Y0744998
X19625Y0754998
X19725Y0734998
X19125Y0794998
X19825Y0734998
X19325Y0734998
X19325Y0784998
X19225Y0764998
X19025Y0774998
X19225Y0744998
X19525Y0794998
T04
X0288Y1264
X0318Y1375
X14845Y01646
X14006Y01519
X17645Y09275
X17555Y09275
X17395Y0934
X1748Y0934
X18079Y11681
X176Y08395
X17695Y08395
X17885Y08395
X1779Y08395
X1756Y0898
X17251Y11554
X17935Y066
X17935Y06525
X17845Y06525
X17845Y066
X1627Y0775
X1724Y113
X0959Y0811
X14871Y02154
X08845Y03535
X22595Y067
X2307502Y0674002
X224133Y0682
X0918Y1154
X1107452Y09075
X1159Y0915
X20355Y0294
X2018769Y0338269
X09815Y0846
X13465Y1142
X0196248Y0022502
X0196248Y009875
X0219Y03275
X0346248Y0022502
X10265Y08285
X07035Y14165
X04325Y0005
X09815Y0776
X04835Y10395
X04345Y0966
X08515Y1343
X18035Y08335
X09125Y13355
X1049Y0811
X07955Y03535
X0615Y1468
X09975Y03285
X1067Y03235
X12195Y03645
X10265Y0846
X1004Y08285
X05166Y03814
X05955Y09145
X0493Y0996
X04905Y09675
X060992Y095492
X0572Y115
X0608Y11275
X0471502Y1148998
X091808Y137258
X09165Y1325
X0898Y1017
X088216Y133766
X0873Y102
R02Y-00125
X05445Y1129
X0595Y12325
X03315Y03855
X0448Y1347
X0448Y1362
X0455Y137
X0455Y1356
X0455Y1324
X0448Y1332
X0455Y134
X0455Y1384
X0448Y1377
X0328075Y1325
X06175Y1032
X0554999Y1047499
X0544999Y10475
X0530001Y1047499
X05895Y0995
X1004Y0846
X06305Y0915
X0207502Y0004998
X0959Y08285
X10265Y07935
X0358Y1335
X02625Y119125
X025Y118
X024766Y119141
X019Y10975
X1007Y1227
R02Y-0008
X1027Y1227
X1027Y1219
X1017Y1227
X1017Y1219
X1027Y1211
X1017Y1211
X07135Y10685
X07215Y10685
X07135Y10605
X07215Y10605
X07215Y10525
X07135Y10525
X07295Y10525
R02Y0008
X1049Y0846
X1891Y05535
X18175Y05585
X09545Y1325
X09905Y13475
X09815Y07935
X06295Y12125
X0505999Y09545
X1004Y07935
X0596Y0982
X0893302Y0540302
X06675Y103
X06425Y10315
X1021Y07585
X09815Y08285
X0615Y1443
X0597Y11925
X0615Y1456428
X09815Y08635
X063Y0926
X031125Y0585
X0353Y1362
X10685Y0855
X1672521Y0929521
X0384499Y1272499
X0504Y1151
X0497Y1151
X0305Y09025
X0452Y1297
X06075Y11545
R02Y0008
X05995Y11545
X05915Y11545
X05995Y11625
X05915Y11625
X05995Y11705
X05915Y11705
X09365Y08285
X0315Y110375
X060125Y11375
X09365Y0776
X157658Y106342
X15075Y10455
X075875Y08425
R03Y-00125
X0755Y078125
X0491Y0685
X08105Y1038
X0865Y1045
X0412Y1274
X05735Y12525
X05735Y12605
X05655Y12525
X05575Y12525
X05655Y12605
X05575Y12605
X05735Y12685
R02X-0008
X1026Y1301
X1016Y1285
X1006Y1285
X1026Y1285
X1016Y1293
X1006Y1293
X1016Y1301
X1026Y1293
X1006Y1301
X052484Y119916
X052484Y122516
X0536Y09285
X0544Y09285
X0536Y0914
X05445Y0914
X05445Y09215
X0536Y09215
X04125Y0895081
X0955Y1009
X0675Y1429
X0596Y0938
X0596Y09305
X06035Y09305
X06035Y0938
X074Y076
X03775Y0732422
X0329Y12115
X074Y07475
X145875Y0215
X06025Y10235
X06025Y10155
X05945Y10155
X05945Y10235
X05865Y10235
X06025Y10315
R02X-0008
X08125Y11465
X086Y1308
X01825Y060597
X034375Y06
X0398748Y0817502
X0376Y08675
X0422419Y0903669
X03325Y0903
X0289Y09625
X0755Y0754
X0766Y07375
X076625Y07275
X16375Y06325
X16175Y1162
X1605Y11625
X153525Y106325
X13605Y12325
X1446176Y1255
X1482Y117
X13605Y11575
X136Y10945
X1416Y10915
X14Y1092
X13825Y10925
X09325Y12445
X092Y12445
X0699002Y0946502
X051Y1385
X0483Y1047
X042Y11955
X036758Y120692
X03225Y118
X03275Y1163
X03225Y1189
X0195Y13125
X0185Y13125
X0479Y1397
X0469Y1397
X0489Y1406
R02X-001
X0489Y1397
X015734Y121734
X07925Y07425
X0763052Y0745447
X034359Y062734
X0268751Y0606251
X2177501Y0322
X2177501Y0217501
X06675Y1127
X06565Y1127
X06925Y1128
X1257Y04865
X065008Y095458
X04325Y11025
X08405Y10285
X064Y124
X0691682Y1226182
X0691682Y1242182
X0691682Y1234182
X07135Y11105
X07215Y11105
X07135Y11025
X07215Y11025
X07295Y11105
X07295Y11025
X1026Y1176
X1018Y1176
X1026Y1187
X1018Y1187
X1034Y1176
X1034Y1187
X1026Y1165
X1018Y1165
X1034Y1165
X07405Y1227
X07405Y1219
X0732Y1227
X0732Y1219
X07235Y1219
X07235Y1227
X08525Y1096
X0845Y1096
X086Y1096
X156676Y077926
X155526Y063674
X04545Y11485
X10415Y1327
X1033Y1327
X10415Y13355
X1033Y13355
X1033Y1344
X10415Y1344
X0392499Y0904
X0415079Y0847
X0698Y0962
X0247676Y1083824
X0804Y11155
X0343Y1381
X02775Y07175
X07865Y1404
X069388Y142888
X0392419Y0923669
X04275Y08475
X0368249Y0843001
X0287Y138591
X0294956Y1393281
X0279005Y138574
X0295001Y1385915
X0278978Y1393106
X0287Y1393276
X0365001Y1251999
X03605Y126275
X03605Y12725
X03605Y122275
X03605Y12325
X0309682Y1361
X0309682Y1353318
X0409999Y0813751
X0368499Y0830999
X0959Y07935
X0237249Y0567249
X0953Y13345
X1429Y10995
X0423Y123492
X04825Y1149
X1018Y0618
X102875Y0618
X1039829Y0618
X19005Y05385
X1908498Y0486498
X188208Y050758
X1135562Y04875
X11355Y04975
X12115Y04125
X12115Y04025
X1114Y04
X11235Y04
X1308249Y0351249
X1280502Y0358502
X1235Y0355
X12585Y0347
X119708Y034792
X1147Y037
X1115249Y0378251
X0872Y0296504
X1325Y03345
X13335Y03095
X1302964Y03095
X13225Y02895
X128Y0275998
X1291Y0289
X0347Y1297
X0345Y1367298
X0729Y1012
X09365Y0811
X0265Y07235
X0398749Y0842501
X0906Y1155
X01825Y0905
X044675Y091075
X031125Y075
X1061Y0402
X1151Y08385
X074757Y064593
X0802341Y0553159
X0802341Y0581159
X07965Y05425
X07965Y053
X0796002Y0517498
X0661082Y0415082
X0667571Y0464071
X074Y08175
X10615Y03845
X1037Y03985
X10735Y04525
X0242499Y0573749
X1203Y03645
X14995Y0296
X0293Y1456
X0269Y1448
X0279Y1448
X0293Y1447
X0286Y1452
X1043Y04035
X14315Y0182
X1502Y03245
X1029Y04785
X034375Y058
X143125Y019
X0685Y1404
X0685Y1436
X08215Y14095
X074Y083
X1375Y0227
X1367Y0227
X13585Y0227
X07495Y10125
X05725Y06475
X0673Y1497
R02X-001
X0663Y1486
X0663Y1475
X0673Y1475
X0653Y1475
X0653Y1486
X0673Y1486
X0735Y1467
X0728Y1458
X0735Y1435
X0728Y1443
X0735Y1451
X0735Y1495
X0728Y1488
X0728Y1473
X0735Y1481
X04615Y03755
X04615Y03675
X04685Y03715
X15235Y02955
X077Y10125
X1459Y0198
X14025Y02025
X173Y0747
X17625Y0723
X14015Y0132
X13545Y01345
X1771Y0723
X1728Y10305
X1763115Y1000495
X1770481Y1000519
X18075Y11425
X18075Y11175
X180042Y102692
X177548Y107348
X1760479Y1073521
X1674Y10975
X14025Y01725
X17995Y075
X1775Y07955
X1757Y0795
X0912Y1456
R02X001
X0912Y1423
R02X001
X0912Y1401
X0912Y1412
X0922Y1412
X0922Y1401
X0932Y1401
X0932Y1412
X0912Y1434
X0912Y1445
X0922Y1445
X0922Y1434
X0932Y1434
X0932Y1445
X020875Y01875
X0271248Y0022502
X074Y07725
X1443Y01445
X14321Y02154
X09365Y0846
X10435Y07585
X0959Y0776
X04895Y1023
X004Y1104
X0057Y1223
X148685Y02281
X0428182Y0382182
X0428182Y0374182
X0428182Y0390182
X21375Y01405
X1093Y14425
X0401Y11985
X0466324Y1219176
X0456Y12455
X0456Y1237
X0456Y12625
X0456Y1254
X0175Y1284
X01415Y1094
X00885Y1115
X01425Y1115
X0147Y11025
X01325Y1056
X009016Y1313
X012Y1263
X0108Y1051
X0505Y004625
X048375Y00225
X0408752Y0022498
R02X-0075
X074Y08025
X06465Y11925
X14845Y01773
X0971Y1216
X0701Y1197
X0554999Y1128499
X12365Y05315
X15475Y03125
X1145Y0869
X1575Y0312
X0967Y1257
X14625Y02985
X13275Y02095
X0779998Y0245998
X15755Y0296
X09665Y12365
X034375Y057
X1066Y07585
X060125Y07725
X0755Y07075
X0599201Y0827951
X008875Y119
X0601949Y0761949
X0805382Y0322382
X07525Y033
X05993Y081695
X1804Y10335
X172975Y075675
X060105Y078395
X0674Y07135
X1802Y07575
X0598799Y0794951
X09365Y08635
X1845Y08335
X18055Y0917
X18135Y0917
X18055Y0925
X18135Y0925
X18215Y0917
X18215Y0925
X1822Y0831
X0601549Y0750951
X08455Y09515
X03175Y1298
X1737Y0786
X199483Y049217
X2068Y0395669
X2107Y0403
X2106009Y0384
X2210625Y0542625
X17585Y0624
X17585Y0616
X17665Y0624
X17665Y0616
X17505Y0624
X17505Y0616
X2171Y097
X2167942Y099
X202234Y1003
X186Y0968
X184Y0964
X2166Y0845
X236905Y081795
X228905Y081795
X21875Y07115
X1917Y07005
X2187Y06171
X187Y0823
X2172Y0885
X1733Y09005
X1741Y09005
X1733Y08925
X1733Y08845
X1741Y08925
X1741Y08845
X217988Y082
X2169Y080088
X2186Y0762
X2006948Y0513948
X1699Y08
X1729999Y0765001
X1492Y0296
X1699Y082
X1803Y0772
X119Y05525
X0777498Y0272
X0749919Y0282
X1164Y0743
X123675Y088025
X0212Y10825
X1829Y0775
X1829Y0755
X11935Y02755
X1546Y10795
X13435Y11675
X09385Y0684342
X1052Y1368
X08945Y1155
X0883Y11225
X0507Y10285
X0563Y0665
X1256751Y0278751
X0435Y10225
X1479Y10735
X1345Y11065
X0887Y115
X1699Y07725
X1699Y079
X0357502Y0004998
X145875Y02275
X14025Y0215
X14319Y02281
X025Y09575
X1049Y0776
X16175Y1069
X1551749Y1095749
X153Y1099
X14315Y01625
X0282502Y0004998
X04715Y10245
X0954Y1143
X10265Y08635
X13405Y115
X1049Y08285
X129Y1163
X1004Y08635
X096058Y118742
X0089Y11725
X0959Y08635
X08515Y13535
X0925Y13535
X10265Y0811
X0920179Y0567179
X10675Y05225
X078Y0988
X09815Y0811
X075Y0988062
X149Y1143
X077Y0988
X15165Y12205
X1049Y07935
X11265Y08565
X129Y117375
X1132Y08635
X0645Y1436
X1146Y08575
X11355Y0844452
X0088751Y1154999
X0635Y1429
X0635Y1404
X0293Y1435
X0311Y1476
X019875Y047
X0421246Y0022504
X0258Y1414
X024Y1414
X0231Y1421
X0249Y1421
X024Y1428
X0258Y1428
X10265Y0776
X2035Y0312
X2026771Y0338729
X11455Y0849
X1004Y0776
X1004Y0811
X04625Y0286
X0235Y0665
X07645Y06545
X11835Y076
X13605Y1142
X0665Y1429
X09365Y07935
X0959Y0846
X19585Y0376
X0907498Y0097498
X233945Y065355
X14025Y01825
X05165Y033
X02383Y13037
X04475Y11305
X159724Y077976
X15855Y06365
X0843498Y1082998
X0852565Y1083935
X176548Y103692
X0675Y1404
X060742Y021492
X09045Y12075
X08775Y12175
X0125Y-00125
X03375Y03985
X02995Y032
X171758Y082842
X0269918Y0859918
X0372002Y0855998
X04275Y0814
X0905Y0345
X0905Y0335
X128Y0268
X13255Y0258
X13255Y0246048
X13425Y01855
X14305Y02025
X14315Y01715
X141266Y009866
X143484Y009884
X14005Y014
X136516Y012866
X1379Y01575
X13655Y01425
X13485Y1517
X1356501Y1517499
X1364499Y1439001
X1340625Y1475999
X1316501Y1475499
X1396501Y1475999
X13885Y1476
X1324499Y1516999
X1316501Y1516999
X1380499Y1517499
X1396501Y1517499
X13885Y15175
X187Y0875
X1845Y0875
X182Y08755
X1779Y11175
X17975Y09655
X17735Y09655
X17855Y09655
X17575Y09655
X1745Y09655
X17335Y09655
X1705Y097822
X1705Y0986
X17035Y088678
X1747Y0809
X17355Y0809
X17995Y0809
X17875Y0809
X1775Y06895
X17995Y06895
X17875Y06895
X17355Y06895
X1759Y06895
X17475Y06895
X17247Y06783
X1621Y0745
X1621Y0758979
X15915Y0707
X16045Y0727
X159708Y071942
X1643Y0705
X1643343Y0695
X1597502Y0660002
X161117Y066433
X1798252Y0568748
X17315Y05895
X18175Y05225
X163708Y062242
X1633521Y0824979
X1454Y08025
X13945Y078942
X1316Y1174
X1316Y1163
X1363Y11825
X151611Y103589
X1375Y0988
X13845Y09815
X14155Y0988
X14Y0988
X097342Y110992
X0986502Y1108498
X089492Y099042
X094508Y102708
X04265Y1005
X0466Y09555
X0651Y09875
X06505Y10175
X0698Y1082
X0687Y1082
X0673Y1082
X0662Y1082
X06475Y1082
X0637Y1082
X06225Y1082
X0698Y10725
X06875Y10725
X0673Y10725
X06625Y10725
X06475Y10725
X0637Y10725
X06225Y10725
X0612Y10725
X0612Y1082
X0657Y0915
X06395Y09535
X0633Y0935
X06195Y0955
X06285Y0945
X0564Y093
X079Y10125
X078Y10125
X016534Y054734
X0008Y06135
X0008Y06315
X0732Y0236
X03265Y0125
X047658Y009492
X0582009Y-0006
X0569Y-0006
X04945Y-0006
X05155Y-0006
X0553008Y-0005992
X05425Y-0006
X0532Y-0006
X0505Y-0006
X0778Y02225
X0777499Y0197501
X0882Y1361
X0766Y12835
X077492Y120042
X07665Y12175
X06515Y11425
X0673Y11975
X0572Y1198
X06075Y12185
X059166Y122084
X04355Y11125
X0175Y1312
X0162Y1312
X01375Y11575
X02Y1098
X0173Y11025
X01755Y1115
X1169498Y0185998
X0855Y0153
X0855Y00975
X09085Y01135
X0987497Y0089497
X0862681Y0752181
X0792298Y0734798
X081208Y076242
X0715Y0803
X0715Y07745
X06265Y0732851
X0631451Y0840049
X0711Y06455
X07415Y0680048
X06525Y0678
X09295Y05925
X0949572Y0599428
X09025Y06775
X08825Y06775
X09025Y06575
X08825Y06575
X08925Y06675
X08825Y0637
X0952571Y0630929
X0951569Y0643431
X0904979Y0479021
X0827479Y0479521
X07955Y04925
X0795501Y0504999
X1144Y0275
X11655Y0275
X1022Y03515
X1021768Y0365268
X057292Y113692
X0973Y106
X0956Y1043
X07415Y0785
X0581Y0677
X0491Y0695
X05285Y06765
X1383Y1133
X091142Y123508
X0941Y123508
X0751Y0978
X0693Y0985
X06965Y09725
X0699498Y0933498
X0902681Y0563681
X10215Y13185
X10065Y13185
X0836Y05725
X0836Y0562175
X0963Y13445
X1003Y1237
X09605Y1199
X10515Y1172
X099992Y118742
X1308Y03405
X1280998Y0345498
X1257Y0357
X1323Y03095
X1335Y03345
X1291Y03095
X13325Y0288
X1303Y0288
X11555Y0353
X1139Y0353
X1096Y0353
X1081268Y0353
X12355Y03685
X14315Y01525
X11105Y04525
X11105Y0477
X096584Y137566
X095408Y135192
X088234Y131734
X08925Y1078
X08485Y10075
X0848Y102
X08985Y10075
X147Y1022
X145658Y090258
X151042Y090258
X1489993Y0954507
X1644979Y0902979
X1572479Y0903979
X1572479Y0996479
X1765Y076
X1765Y0772
X1765Y0748
X1753Y076
X1699Y074
X17765Y076
X228Y151804
X2191999Y151804
X2175999Y151804
X2144Y151804
X216Y151804
X2128001Y151804
X2096Y151804
X2111999Y151804
X2064001Y151804
X2031999Y151804
X2Y151804
X1967999Y151804
X1904001Y151804
X1936Y151804
X1700501Y15175
X1668499Y15175
X16365Y15175
X1588499Y15175
X1540501Y15175
R02X-0048001
X09Y1503
X09Y1513
X09Y1488
X09Y1478
X0694682Y1485318
X0694682Y1494
X0694682Y1503
X0668Y1519
X0677Y1519
X0659Y1519
X0695Y1511
X0695Y1519
X0686Y1519
X05675Y1486
X0554292Y147601
X0324Y1502
X0283Y1506
X0272Y1517
X0261Y1506
X2276Y1442
X224Y144204
X2255999Y144204
X2224Y144204
X2208001Y144204
X2191999Y144204
X2175999Y144204
X2144Y144204
X216Y144204
X2128001Y144204
X2096Y144204
X2111999Y144204
X2064001Y144204
X2031999Y144204
X2Y144204
X1967999Y144204
X1904001Y144204
X1936Y144204
X1700501Y144258
X1668499Y144258
X16365Y144258
X1588499Y144258
X1540501Y144258
R02X-0048001
X09Y1463
X09Y1453
X09Y1438
X09Y1428
X0673Y1462
R03X-001
X0655Y1429
X0513Y1464
X0513Y147375
X0513Y1483
X0665Y1404
R02X-002
X0573Y1417
X0562Y1417
X06005Y1417
X05895Y1417
X0513Y1443
X0513Y143375
X0513Y1424
X039976Y1393
X037092Y138892
X03975Y14115
X0385Y142359
X03725Y14115
X0318Y1406
X0343Y1405938
X2408Y1338041
X05Y13575
X04995Y13775
X04995Y13875
X0336Y1371
X0310499Y1342499
X025175Y137625
X025175Y136625
X025175Y134125
X025175Y135125
X2408Y1298041
X2332Y133004
X2332Y131404
X2332Y129004
X0842Y1299
X0807Y1298
X0818Y1301
X03855Y0393048
X03345Y04205
X04995Y13275
X04995Y13375
X04995Y13025
X04995Y13125
X04245Y13165
X0385Y1299438
X0365Y13
X038508Y131508
X03475Y13225
X03275Y12975
X025175Y131625
X025175Y132625
X01175Y13135
X0105Y1313
X0057Y12975
X2408Y1258041
X2332Y127404
X2332Y125004
X088492Y1255
X0649Y1245048
X03855Y0365952
X0354Y03575
X032934Y037034
X04995Y12575
X04995Y12675
X043358Y128242
X0393448Y1272
X0373Y1274
X0365389Y1244001
X03045Y128225
X03045Y126325
X03045Y12725
X005Y127
X0025Y1275
X-00145Y1273999
X-00005Y1273999
X2408Y1218041
X2332Y123404
X2332Y121004
X14805Y121
X14805Y122
X0751501Y1223501
X0649Y1217
X0557Y12325
X0557Y12425
X0557Y12075
X0557Y12175
X04995Y12325
X04995Y12425
X0505Y1197
X0495Y1197
X04495Y12075
X04495Y12175
X046Y11995
X045Y11995
X03045Y122325
X03045Y12325
X03045Y124225
X022734Y121866
X017766Y1218
X0127499Y1233
X0113129Y119875
X00125Y119625
X2408Y1178041
X2332Y119404
X2332Y117004
X2332Y115404
X1827Y1182
X17785Y11675
X177516Y1181
X17515Y1155
X171234Y1181
X169889Y116989
X042758Y117742
X0105Y11725
X0105001Y1154999
X0048628Y1195
X2408Y1138041
X2332Y113004
X2332Y1114041
X17785Y11425
X17515Y11175
X17515Y113
X1724Y11173
X167246Y112
X1677Y11075
X1558Y1119
X15445Y11175
X08425Y1147
X08625Y1147
X07625Y11475
X0089Y1105
X0105001Y1137501
X0054999Y1134999
X00125Y113375
X2408Y1098041
X2408Y1058041
X2332Y109004
X2332Y1074041
X20825Y10985
X20625Y10985
X20525Y10985
X20425Y10985
X20725Y10985
X20325Y10985
X20125Y10985
X20225Y10985
X19925Y10985
X20025Y10985
X19725Y10985
X19425Y10985
X19525Y10985
X19625Y10985
X19825Y10985
X19325Y109875
X18925Y10985
R03X001
X18625Y10985
R02X001
X18525Y10985
X18425Y109875
X153Y1072
X01425Y1058
X0105Y1097098
X2408Y1018039
X2332Y105004
X2332Y1034041
X2332Y101004
X183092Y103692
X1754Y1049
X1776Y1049
X1776Y1025
X1754Y1025
X17079Y10399
X17079Y101394
X1565Y1022
X155Y1022
X15Y1022
X0233Y102
X0075Y1047
X0065Y1047
X004Y1047
X00075Y10475
X2408Y0978039
X2332Y0994041
X2332Y097004
X2205Y097
X2207058Y099
X204266Y1003
X186Y1002
X184Y1007
X1644979Y0996
X0541Y0968
X05405Y09925
X0226Y0993
X2332Y0954041
X0541Y09425
X0402579Y0923671
X02775Y093875
X0243999Y09645
X0243999Y09505
X233095Y087605
X225095Y087605
X2203Y0885
X03175Y09025
X0292498Y0902498
X0279999Y0902499
X0247Y0925
X023274Y0908
X219Y0857
X057125Y083
X0398749Y0830001
X2209Y079
X221Y081
X187Y0801
X078625Y08175
X080758Y079625
X078625Y0805
X0599051Y0805949
X057125Y08175
X056625Y07875
X057125Y08025
X2205Y0774498
X078Y0765
X057125Y07725
X057125Y07475
X057125Y076
X2347536Y07148
X2272536Y07148
X2187Y06679
X1917Y067984
X034359Y064766
X0261872Y06425
X0240628Y06425
X022Y07075
X021875Y0675
X115745Y0675
X117745Y0674682
X119545Y0674682
X119545Y0620682
X115845Y0620682
X117745Y0620682
X107745Y0667682
R02X0019
X111545Y0626682
X109645Y0626682
X107845Y0626682
X0968Y06075
X034375Y061
X030762Y062262
X026875Y0593251
X023625Y0593251
X0185Y06325
X016625Y0615
X2008419Y0558419
X0968Y05475
R02Y002
X034375Y059
X2408Y0538041
X2332Y053004
X2332Y051404
X216Y05305
X216Y0512
X1970001Y0506999
X0968Y05075
X0968Y05275
X0279Y0528
X0279Y0542
X028Y05025
X2408Y0498041
X2408Y0458041
X2332Y049004
X2332Y047404
X216Y0492
X216Y0452
X216Y0472
X2037629Y0473371
X0968Y04875
X0278998Y0477
X0278998Y0463
X2408Y0418041
X2332Y043404
X2332Y045004
X2332Y041004
X216Y0432
X216Y0412
X2042772Y04449
X2408Y0378041
X2332Y039404
X2332Y037004
X2122519Y0403
X2086369Y0388369
X2068Y0403671
X2068Y0363666
X1961538Y0387669
X091878Y037178
X0813Y037178
X0614Y0370002
X05173Y03707
X0279Y03995
X0279Y03855
X028Y036
X2408Y0338041
X2332Y035404
X2332Y0314041
X2332Y033004
X201742Y031958
X0777498Y0346502
X0760079Y0329921
X0614Y0345001
X0614Y03575
X0610999Y0334999
X0278998Y0334501
X0278998Y0320501
X2408Y0298041
X2332Y029004
X2332Y0274041
X2267Y027
X2155Y029
X198503Y030097
X0774Y0306976
X0760079Y0282
X0594001Y0289001
X2408Y0258041
X2332Y025004
X2332Y0234041
X2156Y025
X060742Y0231
X0279Y0259499
X0279Y0245499
X027875Y022
X2408Y0218039
X2408Y0178039
X2332Y0194041
X2332Y021004
X220508Y020992
X1459Y02065
X13625Y01825
X0278998Y01945
X0278998Y01805
X2332Y0154041
X2332Y017004
X14575Y0128
X0278997Y0119502
X0278997Y0105502
X2295Y006875
X2270999Y006875
X2183001Y006875
X2135Y006875
X2159Y006875
X2079001Y006875
X2039001Y006875
X2015Y006875
X1942999Y006875
X1975Y006875
X1919001Y006875
X1743499Y0067501
X1703499Y0067501
X16715Y0067501
X16475Y0067501
X16315Y0067501
X1599499Y0067501
X1583499Y0067501
X15515Y0067501
X1535501Y0067501
X15035Y0067501
X14875Y0067501
X1455501Y0067501
X1431501Y0067501
X14235Y0067501
X1399499Y0067501
X1375499Y0067501
X1351501Y0067501
X2295Y-0007
X2270999Y-0007
X2247001Y-000875
X2190999Y-000875
X2206999Y-000875
X2095Y-000875
X2079001Y-000875
X2046999Y-000875
X2023001Y-000875
X1975Y-000875
X1935Y-000875
X16875Y-0007501
X1663499Y-0007501
X1639499Y-0007501
X1599499Y-0007501
X1583499Y-0007501
X15515Y-0007501
X1535501Y-0007501
X15035Y-0007501
X14875Y-0007501
X1471501Y-0007501
X14475Y-0007501
X13835Y-0007501
X14075Y-0007501
X0123759Y0027
X0123759Y0013
X043992Y-001508
X0364922Y-0015082
R02X-0075
X08375Y0651
X1057Y0662
X1057Y02635
X10485Y07035
X0841Y07115
X10485Y0263
X12795Y0306
X12935Y03345
X12855Y03345
X2277Y03505
X23055Y05915
X2290249Y0585751
X22675Y03505
X12715Y0306
T05
X0922Y-0009701
X09285Y-0019701
X0935Y-0009701
X09415Y-0019701
X0948Y-0009701
X1992Y0245299
X19985Y0235299
X2005Y0245299
X20115Y0235299
X2018Y0245299
X0867179Y0511229
X0873679Y0501229
X0880179Y0511229
X0886679Y0501229
X0893179Y0511229
T06
X0044Y0989999
X0049776Y1000001
X005555Y0989999
X0061326Y1000001
X0067099Y0989999
X0072875Y1000001
X0078651Y0989999
X0084424Y1000001
X00902Y0989999
X0095976Y1000001
X010175Y0989999
X0107526Y1000001
X0113299Y0989999
X0119075Y1000001
X0124851Y0989999
X0130624Y1000001
X01364Y0989999
X0142176Y1000001
X014795Y0989999
T07
X14425Y117
X14298Y117
X14425Y11827
X14298Y11827
X14425Y11954
X14298Y11954
X14425Y12081
X14298Y12081
X14425Y12208
X14298Y12208
T08
X0146101Y0488999
X0121099Y0488999
X0101099Y0488999
X0076101Y0488999
X00711Y0464999
X00911Y0464999
X0111099Y0464999
R02X002
X0146101Y0358999
X0121099Y0358999
X0101099Y0358999
X0076101Y0358999
X00711Y0334999
X00911Y0334999
X0111099Y0334999
R02X002
X0146101Y0228999
X0121099Y0228999
X0101099Y0228999
X0076101Y0228999
X00711Y0204999
X00911Y0204999
X0111099Y0204999
R02X002
X0146101Y0098999
X0121099Y0098999
X0101099Y0098999
X0076101Y0098999
X00711Y0074999
X00911Y0074999
X0111099Y0074999
R02X002
T09
X074715Y01235
X073445Y01489
X072175Y01235
X070905Y01489
X069635Y01235
X068365Y01489
X067095Y01235
X065825Y01489
X064555Y01235
X063285Y01489
X0622251Y00346
X0622251Y00143
X0757749Y00346
X0757749Y00143
X0537499Y0092501
X0512099Y0092501
X0537499Y0117901
X0512099Y0117901
X0537499Y0143301
X0512099Y0143301
X0537499Y0168701
X0512099Y0168701
X0537499Y0194101
X0512099Y0194101
X01135Y0767849
X01389Y0780549
X01135Y0793249
X01389Y0805949
X01135Y0818649
X01389Y0831349
X01135Y0844049
X01389Y0856749
X01135Y0869449
X01389Y0882149
X00246Y0892748
X00043Y0892748
X00246Y075725
X00043Y075725
T10
X11404Y14975
R02X-00254
T11
X00578Y0508999
X01648Y0508999
X01648Y0451001
X00578Y0451001
X00578Y0378999
X01648Y0378999
X01648Y0321001
X00578Y0321001
X00578Y0248999
X01648Y0248999
X01648Y0191001
X00578Y0191001
X00578Y0118999
X01648Y0118999
X01648Y0061001
X00578Y0061001
T12
X061175Y00905
X076825Y00905
X1815Y0155
X17896Y01804
X18404Y01804
X18404Y01296
X17896Y01296
X1815Y03325
X17896Y03579
X18404Y03579
X18404Y03071
X17896Y03071
X1725Y019
X16996Y02154
X17504Y02154
X17504Y01646
X16996Y01646
X1725Y03675
X16996Y03929
X17504Y03929
X17504Y03421
X16996Y03421
X1635Y03325
X16096Y03579
X16604Y03579
X16604Y03071
X16096Y03071
X1545Y019
X15196Y02154
X15704Y02154
X15704Y01646
X15196Y01646
X1545Y03675
X15196Y03929
X15704Y03929
X15704Y03421
X15196Y03421
X1635Y0155
X16096Y01804
X16604Y01804
X16604Y01296
X16096Y01296
X00805Y0903249
X00805Y0746749
T13
X02125Y14125
X02125Y1357499
T14
X0035001Y1198499
T15
X13265Y003
X1894Y003
X237Y057104
X237Y137104
X12915Y148004
X1879Y148004
T16
X22Y024
X22Y03
X10075Y04975
X10075Y05975
X22Y0422
X22Y0522
T17
X16952Y05767
X16698Y05767
X16952Y06783
X16952Y06021
X16952Y06275
X16952Y06529
X16698Y06021
R03Y00254
T18
X16825Y05894
X16825Y06656
X17685Y003
X2336Y003
X237Y012904
X237Y092904
X17335Y148004
X2321Y148004
T19
X0070001Y066
X0000001Y066
T20
X0025001Y0979999
X01575Y1015
T21
X02125Y14855
T22
X10075Y0965
X13075Y1265
T23
X063285Y006
X074715Y006
X005Y0882149
X005Y0767849
T24
X0Y056
X0Y0
X18325Y0
X0835Y0
X0Y15
X1805Y15
X122Y15
X24Y15
X24Y-0000001
X24Y064
T25
X01025Y056
M30
