M48
METRIC,LZ
T01C.4826
T02C.508
T03C.6599
T04C.889
;EXTENTS: -256.993 -479.998 743.005 520.000 
;LEADER: 12 
;HEADER: 
;CODE  : ASCII 
;FILE  : Z:/clienti/R/Rototype/history/progetto_REVISIONE_RLB_RPB/RLB_revisione/@_CHIUSURA/ECPELCS001-01_1-12.rou for board Z:/clienti/R/Rototype/history/progetto_REVISIONE_RLB_RPB/RLB_revisione/@_CHIUSURA/#Taaaake04628.tmp, layers TOP to BOTTOM
%
G90
F1
M16
T03
M16
G00X0035001Y11251
G40
M15
G01X0035001Y1127902
M16
T04
M16
G00X0053482Y0962497
G40
M15
G01X0071516Y0962497
M16
G00X0027483Y1027502
G40
M15
G01X0045517Y1027502
M16
G00X0117483Y1027502
G40
M15
G01X0135517Y1027502
M16
G00X0148483Y0962497
G40
M15
G01X0166517Y0962497
M16
T01
M16
G00X0844428Y0503857
G40
M15
G01X0844428Y0513003
M16
G00X0915929Y0503857
G40
M15
G01X0915929Y0513003
M16
G00X196925Y0237927
G40
M15
G01X196925Y0247073
M16
G00X20407491Y0237927
G40
M15
G01X20407491Y0247073
M16
G00X0899249Y-0017073
G40
M15
G01X0899249Y-0007927
M16
G00X097075Y-0017073
G40
M15
G01X097075Y-0007927
M16
T02
M16
G00X0019583Y11212
G40
M15
G01X0025421Y11212
M16
G00X-0039917Y11176
G40
M15
G01X-0034079Y11176
M16
G00X-0039917Y12074
G40
M15
G01X-0034079Y12074
M16
G00X0019583Y12038
G40
M15
G01X0025421Y12038
M16
G40
M30
